<svg width="87" height="90" viewBox="0 0 87 90" fill="none" xmlns="http://www.w3.org/2000/svg">
<path d="M64.2029 59.1482V80.5786H67.8168V53.9882L64.2029 59.1482ZM10.7241 72.141C9.92272 72.141 9.27252 71.4908 9.27252 70.6894C9.27252 69.888 9.92272 69.2378 10.7241 69.2378H29.4546C30.256 69.2378 30.9062 69.888 30.9062 70.6894C30.9062 71.4908 30.256 72.141 29.4546 72.141H10.7241ZM10.7241 61.9498C9.92272 61.9498 9.27252 61.2996 9.27252 60.4982C9.27252 59.6968 9.92272 59.0466 10.7241 59.0466H52.2418L61.2992 46.1109V9.42029H58.9252C58.1238 9.42029 57.4736 8.77009 57.4736 7.9687C57.4736 7.1673 58.1238 6.5171 58.9252 6.5171H62.7508C63.5522 6.5171 64.2024 7.1673 64.2024 7.9687V41.9642L67.8163 36.8042V2.90358H25.5273C24.7259 2.90358 24.0757 2.25338 24.0757 1.45199C24.0757 0.650587 24.7259 0.000387157 25.5273 0.000387157H69.2679C70.0693 0.000387157 70.7195 0.650587 70.7195 1.45199V32.6575L77.1949 23.4111C77.9774 22.3148 79.1266 21.6344 80.3552 21.4151C81.5837 21.1997 82.8992 21.4492 84.0068 22.2128L84.1694 22.33C85.2051 23.1087 85.8554 24.2276 86.0632 25.4184C86.2787 26.6431 86.0292 27.9587 85.2694 29.0662L70.7234 49.8464V82.0351C70.7234 82.8365 70.0732 83.4867 69.2718 83.4867H64.2063V88.5484C64.2063 89.3498 63.5561 90 62.7547 90H1.45466C0.653258 90 0.00305803 89.3498 0.00305803 88.5484V74.8714C0.00305803 74.07 0.653258 73.4198 1.45466 73.4198C2.25606 73.4198 2.90625 74.07 2.90625 74.8714V87.0968H61.3031V63.3003L55.1716 72.059C55.0015 72.3047 54.7672 72.4786 54.5063 72.5807L48.6735 74.8412C47.9288 75.1285 47.0896 74.758 46.8023 74.0133C46.7267 73.8168 46.6965 73.6164 46.7078 73.4161L46.8363 67.2089C46.8439 66.8952 46.946 66.6117 47.1198 66.3773L50.2158 61.9545H10.7314L10.7241 61.9498ZM10.7241 51.7547C9.92272 51.7547 9.27252 51.1045 9.27252 50.3031C9.27252 49.5017 9.92272 48.8515 10.7241 48.8515H53.4824C54.2838 48.8515 54.934 49.5017 54.934 50.3031C54.934 51.1045 54.2838 51.7547 53.4824 51.7547H10.7241ZM10.7241 41.5635C9.92272 41.5635 9.27252 40.9133 9.27252 40.1119C9.27252 39.3105 9.92272 38.6603 10.7241 38.6603H53.4824C54.2838 38.6603 54.934 39.3105 54.934 40.1119C54.934 40.9133 54.2838 41.5635 53.4824 41.5635H10.7241ZM16.7762 19.8573C15.9748 19.8573 15.3246 19.2071 15.3246 18.4057C15.3246 17.6043 15.9748 16.9541 16.7762 16.9541H47.4262C48.2276 16.9541 48.8778 17.6043 48.8778 18.4057C48.8778 19.2071 48.2276 19.8573 47.4262 19.8573H16.7762ZM10.7241 31.3685C9.92272 31.3685 9.27252 30.7183 9.27252 29.9169C9.27252 29.1155 9.92272 28.4653 10.7241 28.4653H53.4824C54.2838 28.4653 54.934 29.1155 54.934 29.9169C54.934 30.7183 54.2838 31.3685 53.4824 31.3685H10.7241ZM6.51671 6.5171V1.4516C6.51671 0.6502 7.16691 0 7.96831 0H19.4185C20.2199 0 20.8701 0.6502 20.8701 1.4516C20.8701 2.253 20.2199 2.9032 19.4185 2.9032H9.41991V6.5171H46.4773C47.2787 6.5171 47.9289 7.1673 47.9289 7.9687C47.9289 8.77009 47.2787 9.42029 46.4773 9.42029H2.9032V68.5652C2.9032 69.3666 2.253 70.0168 1.4516 70.0168C0.65019 70.0168 0 69.3666 0 68.5652V7.9687C0 7.1673 0.65019 6.5171 1.4516 6.5171H6.51671ZM77.3992 28.1585L80.7371 30.4947L82.8729 27.4403C83.1905 26.9829 83.2925 26.431 83.2018 25.9132C83.1186 25.4293 82.8616 24.9757 82.4571 24.6581L82.2908 24.5409C81.8523 24.2688 81.3381 24.1856 80.8543 24.2688C80.3704 24.3519 79.9168 24.609 79.5992 25.0172L79.4631 25.2062L77.3992 28.1511L77.3992 28.1585ZM79.0777 32.8649L75.7398 30.5287L73.672 33.4848L77.0099 35.8248L79.0814 32.8686L79.0777 32.8649ZM75.3504 38.1874L72.0125 35.8474L49.7091 67.6994L49.6335 71.3586L53.047 70.0355L75.3465 38.1874H75.3504ZM52.5864 9.41671C51.785 9.41671 51.1348 8.76651 51.1348 7.96512C51.1348 7.16372 51.785 6.51352 52.5864 6.51352H52.8132C53.6146 6.51352 54.2648 7.16372 54.2648 7.96512C54.2648 8.76651 53.6146 9.41671 52.8132 9.41671H52.5864Z" fill="#BAFF00"/>
</svg>
