<svg width="100" height="100" viewBox="0 0 100 100" fill="none" xmlns="http://www.w3.org/2000/svg">
<circle cx="50" cy="50" r="50" fill="#153426"/>
<path d="M48.8801 44.7536L40.2622 52.2821L36.8997 49.3456C35.9372 48.5108 34.5081 48.5108 33.5458 49.3456L22.545 58.932V39.8929C22.5479 37.5448 24.4495 35.6432 26.7976 35.6403H48.6433C49.0694 35.6403 49.4144 35.2954 49.4144 34.8663C49.4144 34.4402 49.0694 34.0952 48.6433 34.0952H26.7976C23.5944 34.0952 21 36.6897 21 39.8928V72.5908C21 75.5794 23.4205 78 26.4092 78H56.3481C59.3367 78 61.7601 75.5795 61.7601 72.5908V47.7367C61.7601 47.3106 61.4152 46.9656 60.9861 46.9656C60.56 46.9656 60.215 47.3106 60.215 47.7367V51.7168L52.2376 44.7597V44.7626C51.2751 43.9248 49.8454 43.9216 48.8801 44.7536ZM60.2119 72.582H60.2148C60.2148 73.6082 59.806 74.5908 59.0814 75.3156C58.3567 76.0403 57.374 76.4461 56.3478 76.4461H26.4089C24.2754 76.4461 22.5448 74.7155 22.5448 72.582V63.2042H60.2148L60.2119 72.582ZM60.2119 61.651H22.5448V60.9698L34.5429 50.5137C34.9198 50.1775 35.485 50.1775 35.8647 50.5137L48.1322 61.2102C48.2714 61.3349 48.454 61.4044 48.6424 61.4044C48.8627 61.4044 49.0744 61.3088 49.2222 61.1407C49.3584 60.987 49.428 60.7841 49.4106 60.5754C49.3961 60.3696 49.3005 60.1782 49.1439 60.0449L41.4128 53.311L49.915 45.922H49.9179C50.2947 45.5858 50.8599 45.5858 51.2397 45.922L60.2145 53.7659L60.2119 61.651ZM24.9477 44.4382C24.9448 46.2384 26.026 47.8646 27.6899 48.5603C29.351 49.256 31.2699 48.8821 32.5483 47.6124C33.8296 46.3428 34.218 44.4295 33.5397 42.7598C32.8585 41.093 31.2409 39.9972 29.4408 39.9857C28.2523 39.9799 27.1131 40.4437 26.2696 41.2785C25.4289 42.1163 24.9535 43.2497 24.9477 44.4382ZM32.3164 44.4382C32.3193 45.6209 31.6062 46.6876 30.5134 47.1399C29.4205 47.5892 28.1624 47.3341 27.3305 46.4934C26.4985 45.6528 26.255 44.3918 26.7188 43.3047C27.1826 42.2148 28.2581 41.5162 29.4408 41.5307C31.0322 41.551 32.3107 42.8467 32.3164 44.4382ZM44.3984 40.6263C44.8245 40.6263 45.1695 40.9713 45.1695 41.4003C45.1695 41.8264 44.8246 42.1714 44.3984 42.1714C42.6244 42.1772 41.1866 43.615 41.1808 45.389C41.1808 45.8152 40.8358 46.1602 40.4097 46.1602C39.9807 46.1602 39.6357 45.8152 39.6357 45.389C39.6328 44.531 39.2907 43.7107 38.6819 43.1077C38.0761 42.5048 37.2528 42.1685 36.3977 42.1714C35.9687 42.1714 35.6237 41.8265 35.6237 41.4003C35.6237 40.9713 35.9687 40.6263 36.3977 40.6263C38.0095 40.6263 39.511 41.4409 40.3922 42.7917C41.2764 41.438 42.781 40.6234 44.3984 40.6263ZM81.578 19.9784C80.7141 18.8914 79.4532 18.1898 78.0733 18.0333C76.6906 17.8767 75.3049 18.2768 74.2208 19.1435L54.4537 34.861C54.3349 34.9567 54.245 35.0842 54.1987 35.232L52.5058 40.505V40.5021C52.271 41.2471 52.4014 42.0559 52.8594 42.6878C53.3175 43.3197 54.0451 43.6966 54.8248 43.7023H55.0335L60.5528 43.2298V43.2327C60.7035 43.2211 60.8514 43.1632 60.9702 43.0704L80.7432 27.3388C83.0043 25.5358 83.3781 22.2423 81.578 19.9784ZM59.2692 38.7251L76.4153 25.0743L78.2328 27.3933L61.0868 41.0441L59.2692 38.7251ZM58.3039 37.5105L56.4864 35.1915L73.6324 21.5785L75.4557 23.8976L58.3039 37.5105ZM54.9095 42.1486C54.6138 42.1775 54.321 42.0529 54.1384 41.8181C53.947 41.5804 53.8891 41.2644 53.9818 40.9746L55.4515 36.4061L59.7099 41.7543L54.9095 42.1486ZM79.7784 26.1327L79.4451 26.3965L74.807 20.6134L75.1403 20.3496C76.7376 19.0829 79.0624 19.3437 80.335 20.9381C81.5988 22.5382 81.3322 24.8602 79.7407 26.1327L79.7784 26.1327ZM26.4785 66.4839C26.4785 66.0578 26.8263 65.7099 27.2525 65.7099H49.0514C49.4775 65.7099 49.8254 66.0578 49.8254 66.4839C49.8254 66.9101 49.4775 67.2579 49.0514 67.2579H27.2525C27.0467 67.2579 26.8496 67.1768 26.7046 67.0318C26.5597 66.8869 26.4785 66.6897 26.4785 66.4839ZM26.4785 69.832C26.4785 69.403 26.8263 69.058 27.2525 69.058H55.4979C55.9241 69.058 56.2719 69.403 56.2719 69.832C56.2719 70.2581 55.9241 70.6031 55.4979 70.6031H27.2525C27.0467 70.6031 26.8496 70.522 26.7046 70.377C26.5597 70.2321 26.4785 70.0349 26.4785 69.832ZM26.4785 73.1859C26.4785 72.7598 26.8263 72.4119 27.2525 72.4119H49.0514C49.4775 72.4119 49.8254 72.7598 49.8254 73.1859C49.8254 73.6121 49.4775 73.9599 49.0514 73.9599H27.2525C27.0467 73.9599 26.8496 73.8787 26.7046 73.7338C26.5597 73.5889 26.4785 73.3917 26.4785 73.1859Z" fill="#BAFF00"/>
</svg>
