<svg width="90" height="90" viewBox="0 0 90 90" fill="none" xmlns="http://www.w3.org/2000/svg">
<path d="M21 6H18V9H21V6Z" fill="#BAFF00"/>
<path d="M27 6H24V9H27V6Z" fill="#BAFF00"/>
<path d="M33 6H30V9H33V6Z" fill="#BAFF00"/>
<path d="M1.5 89.9997H48C48.2966 89.9996 48.5866 89.9116 48.8332 89.7468C49.0798 89.582 49.272 89.3477 49.3855 89.0737C49.499 88.7996 49.5287 88.4981 49.4709 88.2071C49.413 87.9162 49.2702 87.649 49.0605 87.4392L2.5605 40.9392C2.35072 40.7295 2.08348 40.5867 1.79255 40.5288C1.50162 40.471 1.20007 40.5007 0.926018 40.6142C0.651968 40.7277 0.417724 40.9199 0.252898 41.1665C0.0880712 41.4131 6.33365e-05 41.7031 0 41.9997V88.4997C0 88.8975 0.158035 89.279 0.43934 89.5603C0.720644 89.8416 1.10218 89.9997 1.5 89.9997ZM3 45.6207L44.379 86.9997H3V45.6207Z" fill="#BAFF00"/>
<path d="M26.5605 78.4392L11.5605 63.4392C11.3507 63.2295 11.0835 63.0867 10.7925 63.0288C10.5016 62.971 10.2001 63.0007 9.92602 63.1142C9.65197 63.2277 9.41772 63.4199 9.2529 63.6665C9.08807 63.9131 9.00006 64.2031 9 64.4997V79.4997C9 79.8975 9.15804 80.279 9.43934 80.5603C9.72064 80.8416 10.1022 80.9997 10.5 80.9997H25.5C25.7966 80.9996 26.0866 80.9116 26.3332 80.7468C26.5798 80.582 26.772 80.3477 26.8855 80.0737C26.999 79.7996 27.0287 79.4981 26.9709 79.2071C26.913 78.9162 26.7702 78.649 26.5605 78.4392ZM12 77.9997V68.1207L21.879 77.9997H12Z" fill="#BAFF00"/>
<path d="M88.317 12.804C89.3939 11.7271 89.9989 10.2665 89.9989 8.7435C89.9989 7.22052 89.3939 5.75991 88.317 4.683C87.2401 3.60609 85.7795 3.00109 84.2565 3.00109C82.7335 3.00109 81.2729 3.60609 80.196 4.683L77.946 6.933C77.8065 5.05188 76.9621 3.29274 75.5816 2.00734C74.2011 0.721942 72.3863 0.00504241 70.5 0H19.5C17.5116 0.00238179 15.6053 0.793323 14.1993 2.19933C12.7933 3.60534 12.0024 5.51161 12 7.5V46.5H15V7.5C15 6.30653 15.4741 5.16193 16.318 4.31802C17.1619 3.47411 18.3065 3 19.5 3H70.5C71.6935 3 72.8381 3.47411 73.682 4.31802C74.5259 5.16193 75 6.30653 75 7.5V9.879L60.879 24H49.854C48.7853 21.2638 47.0053 18.8627 44.6978 17.0449C42.3904 15.2271 39.6393 14.0585 36.729 13.6601C33.8187 13.2616 30.8547 13.6476 28.1436 14.7782C25.4324 15.9089 23.0725 17.7431 21.3076 20.0913C19.5428 22.4395 18.4371 25.2165 18.1049 28.1351C17.7728 31.0537 18.2261 34.0081 19.4182 36.6928C20.6102 39.3776 22.4977 41.6952 24.8854 43.4062C27.2732 45.1171 30.0746 46.1593 33 46.425V52.5C33 52.8978 33.158 53.2794 33.4393 53.5607C33.7206 53.842 34.1022 54 34.5 54H67.5C67.8978 54 68.2794 53.842 68.5607 53.5607C68.842 53.2794 69 52.8978 69 52.5V32.121L75 26.121V57H40.5C40.1022 57 39.7206 57.158 39.4393 57.4393C39.158 57.7206 39 58.1022 39 58.5V70.5C39 70.8978 39.158 71.2794 39.4393 71.5607C39.7206 71.842 40.1022 72 40.5 72H75V73.5C75 74.6935 74.5259 75.8381 73.682 76.682C72.8381 77.5259 71.6935 78 70.5 78H46.5V81H70.5C72.4884 80.9976 74.3947 80.2067 75.8007 78.8007C77.2067 77.3947 77.9976 75.4884 78 73.5V72H88.5C88.8978 72 89.2794 71.842 89.5607 71.5607C89.842 71.2794 90 70.8978 90 70.5V58.5C90 58.1022 89.842 57.7206 89.5607 57.4393C89.2794 57.158 88.8978 57 88.5 57H78V23.121L88.317 12.804ZM82.317 6.804C82.5696 6.54025 82.8724 6.3296 83.2076 6.18441C83.5427 6.03922 83.9035 5.96242 84.2687 5.95849C84.6339 5.95457 84.9962 6.02361 85.3344 6.16157C85.6726 6.29953 85.9798 6.50362 86.2381 6.76189C86.4964 7.02015 86.7005 7.32739 86.8384 7.66557C86.9764 8.00375 87.0454 8.36608 87.0415 8.7313C87.0376 9.09652 86.9608 9.45728 86.8156 9.79242C86.6704 10.1276 86.4597 10.4303 86.196 10.683L85.5 11.379L81.621 7.5L82.317 6.804ZM48 30C47.9955 33.3189 46.7699 36.5201 44.5569 38.9935C42.3438 41.4669 39.298 43.0395 36 43.4115V27H47.652C47.8802 27.9838 47.9969 28.9901 48 30ZM33 25.5V43.4115C30.6707 43.1549 28.4483 42.2965 26.5514 40.9205C24.6544 39.5446 23.1483 37.6986 22.1812 35.564C21.2141 33.4295 20.8193 31.08 21.0356 28.7466C21.2519 26.4132 22.0719 24.1763 23.4148 22.2559C24.7578 20.3355 26.5776 18.7978 28.6951 17.7939C30.8126 16.7901 33.1549 16.3548 35.4917 16.5308C37.8285 16.7067 40.0792 17.488 42.0225 18.7976C43.9658 20.1072 45.5348 21.9001 46.575 24H34.5C34.1022 24 33.7206 24.158 33.4393 24.4393C33.158 24.7206 33 25.1022 33 25.5ZM66 51H36V46.425C38.2872 46.2249 40.507 45.5476 42.5164 44.437C44.5258 43.3264 46.2802 41.8071 47.6665 39.9769C49.0527 38.1468 50.0401 36.0464 50.5649 33.8113C51.0897 31.5762 51.1403 29.2559 50.7135 27H57.879L54.4395 30.4395C54.2297 30.6485 54.0871 30.9154 54.03 31.206L52.53 38.706C52.4865 38.9235 52.4918 39.148 52.5455 39.3632C52.5993 39.5785 52.7001 39.7791 52.8407 39.9507C52.9813 40.1223 53.1582 40.2606 53.3586 40.3555C53.5591 40.4505 53.7782 40.4999 54 40.5C54.1008 40.5008 54.2014 40.4908 54.3 40.47L61.8 38.97C62.0906 38.9129 62.3575 38.7703 62.5665 38.5605L66 35.121V51ZM56.421 34.542L58.458 36.579L55.908 37.0875L56.421 34.542ZM81 60V63H84V60H87V69H42V60H45V63H48V60H51V63H54V60H57V63H60V60H63V63H66V60H69V63H72V60H75V63H78V60H81ZM61.5 35.379L57.621 31.5L79.5 9.621L83.379 13.5L61.5 35.379Z" fill="#BAFF00"/>
</svg>
