<svg width="100" height="100" viewBox="0 0 100 100" fill="none" xmlns="http://www.w3.org/2000/svg">
<circle cx="50" cy="50" r="50" fill="#153426"/>
<path fill-rule="evenodd" clip-rule="evenodd" d="M29.5607 29.5688C32.3478 26.7822 36.0148 25.0482 39.9371 24.6623C43.8593 24.2763 47.794 25.2623 51.0708 27.4521C54.3476 29.6419 56.7637 32.9002 57.9075 36.6717C59.0513 40.4433 58.852 44.4947 57.3436 48.1358C55.8351 51.7769 53.1109 54.7823 49.635 56.64C46.1591 58.4977 42.1467 59.0927 38.2813 58.3236C34.4159 57.5546 30.9367 55.4691 28.4365 52.4225C25.9364 49.3758 24.5699 45.5566 24.57 41.6154C24.5671 39.3776 25.0066 37.1614 25.8631 35.094C26.7196 33.0266 27.9762 31.1489 29.5607 29.5688ZM30.8464 30.8545C28.3569 33.3446 26.8079 36.6209 26.4633 40.1252C26.1187 43.6294 26.9997 47.1447 28.9564 50.0721C30.9131 52.9995 33.8242 55.1579 37.1939 56.1796C40.5636 57.2012 44.1832 57.0228 47.4361 55.6749C50.689 54.3269 53.3739 51.8927 55.0332 48.7871C56.6926 45.6815 57.2238 42.0966 56.5364 38.6433C55.8489 35.1899 53.9853 32.0817 51.2631 29.8484C48.5409 27.615 45.1285 26.3947 41.6073 26.3952C39.6085 26.3927 37.6288 26.7851 35.7821 27.55C33.9354 28.3149 32.258 29.4372 30.8464 30.8525V30.8545ZM27.6041 27.6122C24.1747 31.0388 22.1211 35.6042 21.8325 40.4436C21.5439 45.2829 23.0403 50.0601 26.0381 53.87C29.036 57.6799 33.3271 60.2579 38.0986 61.1157C42.8701 61.9734 47.7904 61.0513 51.9275 58.5241C52.1013 58.4182 52.3057 58.3739 52.5077 58.3981C52.7098 58.4222 52.8979 58.5136 53.0418 58.6574L55.1404 60.756C55.4473 61.0597 55.8616 61.2301 56.2934 61.2301C56.7251 61.2301 57.1395 61.0597 57.4464 60.756L60.7446 57.4578C61.0483 57.1509 61.2187 56.7366 61.2187 56.3048C61.2187 55.873 61.0483 55.4587 60.7446 55.1518L58.646 53.0532C58.4945 52.9017 58.4013 52.7016 58.3828 52.4881C58.3644 52.2746 58.422 52.0615 58.5453 51.8862C61.0573 47.746 61.9654 42.829 61.0979 38.0647C60.2303 33.3004 57.6473 29.019 53.8372 26.03C50.027 23.041 45.2538 21.5515 40.42 21.8432C35.5861 22.1349 31.0266 24.1875 27.6035 27.6129L27.6041 27.6122ZM64.7931 64.8011C64.5116 65.083 64.2886 65.4176 64.1369 65.7859C63.9851 66.1541 63.9076 66.5488 63.9088 66.9471H63.9055C63.9047 67.3457 63.9828 67.7405 64.1351 68.1089C64.2874 68.4773 64.511 68.8119 64.7931 69.0936L73.7028 78.0034C73.7631 78.0634 73.8345 78.1109 73.9132 78.1431C73.9918 78.1754 74.076 78.1918 74.161 78.1915V78.1948C74.2461 78.1946 74.3303 78.1775 74.4088 78.1447C74.4873 78.1119 74.5585 78.0638 74.6184 78.0034L77.9954 74.6265C78.1158 74.5046 78.1833 74.3401 78.1833 74.1687C78.1833 73.9973 78.1158 73.8329 77.9954 73.7109L69.0856 64.8011C68.5149 64.2347 67.7434 63.9169 66.9393 63.9169C66.1352 63.9169 65.3638 64.2347 64.7931 64.8011ZM62.0943 67.0264C62.1105 68.2853 62.6172 69.4883 63.5067 70.3793L72.4172 79.2898C72.6461 79.5187 72.918 79.7002 73.2172 79.8238C73.5165 79.9473 73.8372 80.0106 74.161 80.01C74.4844 80.0111 74.8049 79.9483 75.104 79.8253C75.4031 79.7023 75.675 79.5214 75.9041 79.2931L79.2817 75.9155C79.7437 75.4529 80.0032 74.8258 80.0032 74.172C80.0032 73.5182 79.7437 72.8912 79.2817 72.4286L70.3713 63.5148C69.4794 62.6237 68.275 62.1157 67.0143 62.099L62.7051 57.7885C63.0107 57.1447 63.11 56.4222 62.9894 55.7197C62.8689 55.0173 62.5344 54.3693 62.0316 53.8641L60.4312 52.2637C63.0059 47.7137 63.8445 42.3849 62.7917 37.2641C61.739 32.1433 58.8661 27.5775 54.7053 24.4123C50.5444 21.2471 45.3775 19.697 40.1615 20.0491C34.9454 20.4012 30.0337 22.6316 26.3359 26.3272C22.6382 30.0229 20.405 34.9333 20.0499 40.1492C19.6949 45.365 21.242 50.5328 24.4048 54.6954C27.5676 58.8581 32.1318 61.7336 37.252 62.7893C42.3722 63.845 47.7015 63.0094 52.2529 60.4373L53.8534 62.0377C54.3585 62.5404 55.0066 62.8749 55.709 62.9955C56.4114 63.116 57.1339 63.0168 57.7778 62.7112L62.0916 67.0244L62.0943 67.0264ZM59.2062 61.5669L61.5588 59.2143L64.8931 62.5485C63.8553 63.0297 63.0217 63.8633 62.5404 64.9012L59.2062 61.5669ZM43.7633 40.6045H44.3381C44.4518 40.6045 44.5629 40.5708 44.6574 40.5076C44.752 40.4444 44.8257 40.3547 44.8692 40.2496C44.9127 40.1446 44.9241 40.029 44.9019 39.9175C44.8797 39.806 44.8249 39.7036 44.7446 39.6232C44.6642 39.5428 44.5617 39.488 44.4502 39.4659C44.3387 39.4437 44.2231 39.4551 44.1181 39.4986C44.0131 39.5421 43.9233 39.6158 43.8601 39.7103C43.797 39.8048 43.7633 39.916 43.7633 40.0296V40.6045ZM38.4705 40.4358C38.5237 40.4892 38.587 40.5317 38.6567 40.5606C38.7264 40.5896 38.8011 40.6045 38.8766 40.6045H39.4514V40.0296C39.4515 39.9351 39.4283 39.8419 39.3838 39.7585C39.3393 39.675 39.2749 39.6038 39.1963 39.5512C39.1177 39.4986 39.0273 39.4662 38.9332 39.4569C38.8391 39.4476 38.7441 39.4617 38.6567 39.4978C38.5693 39.534 38.4922 39.5912 38.4322 39.6643C38.3722 39.7374 38.3312 39.8242 38.3128 39.917C38.2943 40.0098 38.2991 40.1056 38.3266 40.1961C38.3541 40.2866 38.4035 40.3689 38.4705 40.4358ZM41.2712 48.642H41.9448V42.423H41.2699V48.642H41.2712ZM46.9535 32.9077C45.8964 31.8504 44.5495 31.1303 43.0832 30.8385C41.6168 30.5467 40.0968 30.6963 38.7155 31.2685C37.3342 31.8406 36.1536 32.8095 35.323 34.0527C34.4924 35.2958 34.0491 36.7574 34.0493 38.2525C33.9923 39.0427 34.0981 39.8361 34.3599 40.5839C34.6218 41.3316 35.0342 42.0176 35.5717 42.5997C36.5346 43.7853 37.4962 44.9697 37.4962 48.0472C37.4971 48.2058 37.5607 48.3576 37.6732 48.4694C37.7856 48.5812 37.9378 48.644 38.0964 48.644H39.4541V42.423H38.8793C38.4059 42.423 37.9432 42.2826 37.5496 42.0196C37.156 41.7566 36.8493 41.3829 36.6681 40.9455C36.487 40.5082 36.4396 40.027 36.5319 39.5627C36.6243 39.0985 36.8522 38.672 37.1869 38.3373C37.5216 38.0026 37.9481 37.7747 38.4123 37.6823C38.8766 37.59 39.3578 37.6374 39.7951 37.8185C40.2325 37.9996 40.6063 38.3064 40.8692 38.7C41.1322 39.0936 41.2726 39.5563 41.2726 40.0296V40.6045H41.9448V40.0296C41.9448 39.5563 42.0851 39.0936 42.3481 38.7C42.6111 38.3064 42.9849 37.9996 43.4222 37.8185C43.8595 37.6374 44.3407 37.59 44.805 37.6823C45.2693 37.7747 45.6957 38.0026 46.0304 38.3373C46.3651 38.672 46.5931 39.0985 46.6854 39.5627C46.7778 40.027 46.7304 40.5082 46.5492 40.9455C46.3681 41.3829 46.0613 41.7566 45.6678 42.0196C45.2742 42.2826 44.8114 42.423 44.3381 42.423H43.7633V48.642H45.1216C45.2797 48.6411 45.431 48.578 45.5427 48.4662C45.6544 48.3545 45.7176 48.2032 45.7185 48.0452C45.7185 44.9677 46.6801 43.7833 47.6437 42.5977C48.1808 42.0158 48.5929 41.33 48.8548 40.5827C49.1166 39.8354 49.2226 39.0423 49.1661 38.2525C49.1674 37.2597 48.9724 36.2764 48.5925 35.3592C48.2125 34.4419 47.6551 33.6088 46.9521 32.9077H46.9535ZM38.8893 50.4605V51.9716C38.8903 52.2283 38.9926 52.4741 39.1739 52.6558C39.3552 52.8375 39.6009 52.9403 39.8575 52.9419H43.3438C43.6008 52.9408 43.847 52.8382 44.0287 52.6565C44.2105 52.4748 44.313 52.2286 44.3141 51.9716V50.4605H38.8893ZM46.1346 50.2371C46.5521 50.0425 46.9056 49.733 47.1536 49.3448C47.4016 48.9566 47.5339 48.5058 47.535 48.0452C47.4799 47.2625 47.5858 46.4768 47.846 45.7366C48.1063 44.9964 48.5153 44.3174 49.0481 43.7413C50.0143 42.5517 50.9819 41.3593 50.9819 38.2525C50.9924 37.0144 50.7575 35.7866 50.291 34.6398C49.8244 33.4929 49.1354 32.4499 48.2636 31.5707C47.3919 30.6916 46.3546 29.9938 45.2118 29.5175C44.0689 29.0413 42.8431 28.7962 41.605 28.7962C40.3669 28.7962 39.1411 29.0413 37.9982 29.5175C36.8554 29.9938 35.8182 30.6916 34.9464 31.5707C34.0746 32.4499 33.3856 33.4929 32.919 34.6398C32.4525 35.7866 32.2176 37.0144 32.2281 38.2525C32.2281 41.3593 33.1957 42.5517 34.162 43.7413C34.6948 44.3173 35.104 44.9963 35.3642 45.7366C35.6244 46.4768 35.7302 47.2625 35.675 48.0452C35.6762 48.5043 35.8078 48.9536 36.0544 49.3408C36.301 49.7281 36.6525 50.0373 37.0681 50.2324V51.9716C37.0693 52.711 37.3636 53.4197 37.8865 53.9424C38.4094 54.4652 39.1182 54.7593 39.8575 54.7604H43.3438C44.0831 54.7591 44.7917 54.4649 45.3144 53.9422C45.8371 53.4195 46.1313 52.7108 46.1326 51.9716L46.1346 50.2371Z" fill="#BAFF00"/>
</svg>
