<svg width="100" height="100" viewBox="0 0 100 100" fill="none" xmlns="http://www.w3.org/2000/svg">
<circle cx="50" cy="50" r="50" fill="#153426"/>
<path d="M23.0014 77.0838C23.3084 77.3907 23.6921 77.5442 24.0758 77.5442C24.4594 77.5442 24.8431 77.3907 25.1501 77.0838L36.9676 65.2663C37.5815 64.6524 37.5815 63.7315 36.9676 63.1176C36.3537 62.5038 35.4328 62.5038 34.8189 63.1176L23.0014 74.9352C22.3875 75.4723 22.3875 76.4699 23.0014 77.0838Z" fill="#BAFF00"/>
<path d="M26.072 66.1872L31.9807 60.2785C32.5946 59.6646 32.5946 58.7438 31.9807 58.1299C31.3668 57.516 30.446 57.516 29.8321 58.1299L23.9233 64.0386C23.3094 64.6525 23.3094 65.5733 23.9233 66.1872C24.2303 66.4942 24.6139 66.6477 24.9976 66.6477C25.3813 66.6477 25.765 66.4942 26.072 66.1872Z" fill="#BAFF00"/>
<path d="M21.0059 59.8182C21.1594 59.8949 21.3896 59.8949 21.5431 59.8949C22.0035 59.8949 22.464 59.6647 22.7709 59.281C22.8476 59.2043 28.296 51.684 33.1304 54.2931L45.7153 66.878C48.4011 71.7124 40.8041 77.1607 40.7274 77.2375C40.1902 77.6212 39.96 78.3885 40.1902 79.0024C40.4204 79.6163 40.9576 80 41.6482 80C41.7249 80 41.7249 80 41.8017 80C49.015 79.2326 54.4633 76.7003 57.8397 72.3263C61.5998 67.4919 61.83 61.9668 61.6766 59.8182C70.3479 53.3723 74.7986 45.6985 77.1007 39.4828C80.7841 29.814 80.0935 21.7566 80.0167 21.4496C79.94 20.6823 79.4028 20.1451 78.6355 20.0684C78.3285 20.0684 70.2711 19.301 60.5255 22.9076C54.3098 25.2098 46.6361 29.7372 40.1902 38.3318C38.0416 38.2551 32.5165 38.4085 27.6821 42.1686C23.3081 45.5451 20.7757 50.9934 20.0084 58.2067C19.9316 58.9741 20.3921 59.588 21.0059 59.8182ZM55.4609 70.4846C53.389 73.0937 50.3195 75.0121 46.4059 76.0864C48.4011 73.7076 50.166 70.3311 49.015 66.8012C52.6216 65.3432 55.7678 63.7317 58.6071 61.9668C58.4536 64.2689 57.763 67.5686 55.4609 70.4846ZM77.024 23.0611C77.024 25.44 76.8705 30.7348 74.7986 36.8738L63.2113 25.2098C69.3503 23.2146 74.6451 22.9844 77.024 23.0611ZM42.1086 40.9409C42.1854 40.8641 42.2621 40.7874 42.2621 40.7106C46.8663 34.188 52.8518 29.4303 60.0651 26.4376L73.6476 40.02C70.6548 47.2333 65.8204 53.142 59.3745 57.823C59.2977 57.8997 59.221 57.9765 59.1443 57.9765C55.6911 60.4321 51.7775 62.504 47.4035 64.1922L35.8929 52.6816C37.5811 48.3076 39.653 44.394 42.1086 40.9409ZM29.5238 44.6242C32.4398 42.3221 35.8162 41.6315 38.0416 41.478C36.2766 44.3173 34.5884 47.4635 33.2071 51.0701C29.6772 49.9191 26.3775 51.684 23.922 53.6792C25.073 49.7656 26.9147 46.6961 29.5238 44.6242Z" fill="#BAFF00"/>
<path d="M41.9553 68.1054C41.3414 67.4915 40.4206 67.4915 39.8067 68.1054L33.8979 74.0142C33.284 74.6281 33.284 75.5489 33.8979 76.1628C34.2049 76.4698 34.5886 76.6233 34.9722 76.6233C35.3559 76.6233 35.7396 76.4698 36.0466 76.1628L41.9553 70.2541C42.5692 69.7169 42.5692 68.7193 41.9553 68.1054Z" fill="#BAFF00"/>
<path d="M57.5317 50.3027C59.5269 50.3027 61.522 49.5353 63.0568 48.0006C66.1262 44.9311 66.1262 40.02 63.0568 37.0272C59.9873 33.9577 55.0761 33.9577 52.0834 37.0272C49.0139 40.0967 49.0139 45.0079 52.0834 48.0006C53.5414 49.5353 55.5365 50.3027 57.5317 50.3027ZM54.232 39.1758C55.1528 38.255 56.3806 37.7946 57.5317 37.7946C58.6827 37.7946 59.9105 38.255 60.8314 39.1758C61.7522 40.0967 62.2127 41.2477 62.2127 42.4755C62.2127 43.7033 61.7522 44.9311 60.8314 45.7752C58.9897 47.6169 55.997 47.6169 54.1553 45.7752C52.3903 44.0103 52.3903 41.0175 54.232 39.1758Z" fill="#BAFF00"/>
</svg>
