<svg width="589" height="77" viewBox="0 0 589 77" fill="none" xmlns="http://www.w3.org/2000/svg">
<circle cx="30.0001" cy="38.4254" r="29.8216" transform="rotate(-180 30.0001 38.4254)" fill="#073D1E"/>
<circle cx="59.8219" cy="38.4257" r="38.4254" transform="rotate(-180 59.8219 38.4257)" fill="url(#paint0_radial_316_74)"/>
<path d="M125 58.16V17.84H141.66C142.052 17.84 142.556 17.8587 143.172 17.896C143.788 17.9147 144.357 17.9707 144.88 18.064C147.213 18.4187 149.136 19.1933 150.648 20.388C152.179 21.5827 153.308 23.0947 154.036 24.924C154.783 26.7347 155.156 28.7507 155.156 30.972C155.156 34.2573 154.325 37.0853 152.664 39.456C151.003 41.808 148.455 43.264 145.02 43.824L142.136 44.076H131.748V58.16H125ZM148.156 58.16L140.204 41.752L147.064 40.24L155.8 58.16H148.156ZM131.748 37.776H141.38C141.753 37.776 142.173 37.7573 142.64 37.72C143.107 37.6827 143.536 37.608 143.928 37.496C145.048 37.216 145.925 36.7213 146.56 36.012C147.213 35.3027 147.671 34.5 147.932 33.604C148.212 32.708 148.352 31.8307 148.352 30.972C148.352 30.1133 148.212 29.236 147.932 28.34C147.671 27.4253 147.213 26.6133 146.56 25.904C145.925 25.1947 145.048 24.7 143.928 24.42C143.536 24.308 143.107 24.2427 142.64 24.224C142.173 24.1867 141.753 24.168 141.38 24.168H131.748V37.776Z" fill="black"/>
<path d="M170.425 59C168.241 59 166.393 58.5893 164.881 57.768C163.369 56.928 162.221 55.8173 161.437 54.436C160.671 53.0547 160.289 51.5333 160.289 49.872C160.289 48.416 160.531 47.1093 161.017 45.952C161.502 44.776 162.249 43.768 163.257 42.928C164.265 42.0693 165.571 41.3693 167.177 40.828C168.39 40.436 169.809 40.0813 171.433 39.764C173.075 39.4467 174.849 39.1573 176.753 38.896C178.675 38.616 180.682 38.3173 182.773 38L180.365 39.372C180.383 37.2813 179.917 35.7413 178.965 34.752C178.013 33.7627 176.407 33.268 174.149 33.268C172.786 33.268 171.47 33.5853 170.201 34.22C168.931 34.8547 168.045 35.9467 167.541 37.496L161.381 35.564C162.127 33.0067 163.546 30.9533 165.637 29.404C167.746 27.8547 170.583 27.08 174.149 27.08C176.837 27.08 179.198 27.5187 181.233 28.396C183.286 29.2733 184.807 30.7107 185.797 32.708C186.338 33.772 186.665 34.864 186.777 35.984C186.889 37.0853 186.945 38.2893 186.945 39.596V58.16H181.037V51.608L182.017 52.672C180.654 54.856 179.058 56.4613 177.229 57.488C175.418 58.496 173.15 59 170.425 59ZM171.769 53.624C173.299 53.624 174.606 53.3533 175.689 52.812C176.771 52.2707 177.63 51.608 178.265 50.824C178.918 50.04 179.357 49.3027 179.581 48.612C179.935 47.7533 180.131 46.7733 180.169 45.672C180.225 44.552 180.253 43.6467 180.253 42.956L182.325 43.572C180.29 43.8893 178.545 44.1693 177.089 44.412C175.633 44.6547 174.382 44.888 173.337 45.112C172.291 45.3173 171.367 45.5507 170.565 45.812C169.781 46.092 169.118 46.4187 168.577 46.792C168.035 47.1653 167.615 47.5947 167.317 48.08C167.037 48.5653 166.897 49.1347 166.897 49.788C166.897 50.5347 167.083 51.1973 167.457 51.776C167.83 52.336 168.371 52.784 169.081 53.12C169.809 53.456 170.705 53.624 171.769 53.624Z" fill="black"/>
<path d="M206.358 59C203.577 59 201.15 58.3 199.078 56.9C197.006 55.5 195.401 53.596 194.262 51.188C193.124 48.78 192.554 46.064 192.554 43.04C192.554 39.9787 193.124 37.2533 194.262 34.864C195.42 32.456 197.053 30.5613 199.162 29.18C201.272 27.78 203.754 27.08 206.61 27.08C209.485 27.08 211.893 27.78 213.834 29.18C215.794 30.5613 217.278 32.456 218.286 34.864C219.294 37.272 219.798 39.9973 219.798 43.04C219.798 46.0453 219.294 48.7613 218.286 51.188C217.278 53.596 215.776 55.5 213.778 56.9C211.781 58.3 209.308 59 206.358 59ZM207.394 52.952C209.205 52.952 210.661 52.5413 211.762 51.72C212.882 50.88 213.694 49.7133 214.198 48.22C214.721 46.7267 214.982 45 214.982 43.04C214.982 41.0613 214.721 39.3347 214.198 37.86C213.694 36.3667 212.901 35.2093 211.818 34.388C210.736 33.548 209.336 33.128 207.618 33.128C205.808 33.128 204.314 33.576 203.138 34.472C201.962 35.3493 201.094 36.544 200.534 38.056C199.974 39.5493 199.694 41.2107 199.694 43.04C199.694 44.888 199.965 46.568 200.506 48.08C201.066 49.5733 201.916 50.7587 203.054 51.636C204.193 52.5133 205.64 52.952 207.394 52.952ZM214.982 58.16V36.936H214.142V17.84H220.946V58.16H214.982Z" fill="black"/>
<path d="M229.357 23.328V17.14H236.105V23.328H229.357ZM229.357 58.16V27.92H236.105V58.16H229.357Z" fill="black"/>
<path d="M257.624 59C254.507 59 251.847 58.3093 249.644 56.928C247.442 55.528 245.752 53.624 244.576 51.216C243.419 48.808 242.831 46.0827 242.812 43.04C242.831 39.9413 243.438 37.1973 244.632 34.808C245.846 32.4 247.563 30.5147 249.784 29.152C252.006 27.7707 254.647 27.08 257.708 27.08C261.143 27.08 264.046 27.948 266.416 29.684C268.806 31.4013 270.364 33.7533 271.092 36.74L264.372 38.56C263.85 36.936 262.982 35.676 261.768 34.78C260.555 33.8653 259.174 33.408 257.624 33.408C255.87 33.408 254.423 33.828 253.284 34.668C252.146 35.4893 251.306 36.628 250.764 38.084C250.223 39.54 249.952 41.192 249.952 43.04C249.952 45.9147 250.596 48.2387 251.884 50.012C253.172 51.7853 255.086 52.672 257.624 52.672C259.416 52.672 260.826 52.2613 261.852 51.44C262.898 50.6187 263.682 49.4333 264.204 47.884L271.092 49.424C270.159 52.504 268.526 54.8747 266.192 56.536C263.859 58.1787 261.003 59 257.624 59Z" fill="black"/>
<path d="M284.667 59C282.483 59 280.635 58.5893 279.123 57.768C277.611 56.928 276.463 55.8173 275.679 54.436C274.914 53.0547 274.531 51.5333 274.531 49.872C274.531 48.416 274.774 47.1093 275.259 45.952C275.744 44.776 276.491 43.768 277.499 42.928C278.507 42.0693 279.814 41.3693 281.419 40.828C282.632 40.436 284.051 40.0813 285.675 39.764C287.318 39.4467 289.091 39.1573 290.995 38.896C292.918 38.616 294.924 38.3173 297.015 38L294.607 39.372C294.626 37.2813 294.159 35.7413 293.207 34.752C292.255 33.7627 290.65 33.268 288.391 33.268C287.028 33.268 285.712 33.5853 284.443 34.22C283.174 34.8547 282.287 35.9467 281.783 37.496L275.623 35.564C276.37 33.0067 277.788 30.9533 279.879 29.404C281.988 27.8547 284.826 27.08 288.391 27.08C291.079 27.08 293.44 27.5187 295.475 28.396C297.528 29.2733 299.05 30.7107 300.039 32.708C300.58 33.772 300.907 34.864 301.019 35.984C301.131 37.0853 301.187 38.2893 301.187 39.596V58.16H295.279V51.608L296.259 52.672C294.896 54.856 293.3 56.4613 291.471 57.488C289.66 58.496 287.392 59 284.667 59ZM286.011 53.624C287.542 53.624 288.848 53.3533 289.931 52.812C291.014 52.2707 291.872 51.608 292.507 50.824C293.16 50.04 293.599 49.3027 293.823 48.612C294.178 47.7533 294.374 46.7733 294.411 45.672C294.467 44.552 294.495 43.6467 294.495 42.956L296.567 43.572C294.532 43.8893 292.787 44.1693 291.331 44.412C289.875 44.6547 288.624 44.888 287.579 45.112C286.534 45.3173 285.61 45.5507 284.807 45.812C284.023 46.092 283.36 46.4187 282.819 46.792C282.278 47.1653 281.858 47.5947 281.559 48.08C281.279 48.5653 281.139 49.1347 281.139 49.788C281.139 50.5347 281.326 51.1973 281.699 51.776C282.072 52.336 282.614 52.784 283.323 53.12C284.051 53.456 284.947 53.624 286.011 53.624Z" fill="black"/>
<path d="M309.037 58.16V17H315.785V58.16H309.037Z" fill="black"/>
<path d="M350.307 59C347.357 59 344.697 58.4867 342.327 57.46C339.975 56.4333 338.033 54.968 336.503 53.064C334.991 51.1413 334.029 48.864 333.619 46.232L340.619 45.168C341.216 47.5573 342.439 49.4053 344.287 50.712C346.153 52.0187 348.3 52.672 350.727 52.672C352.164 52.672 353.517 52.448 354.787 52C356.056 51.552 357.083 50.8987 357.867 50.04C358.669 49.1813 359.071 48.1267 359.071 46.876C359.071 46.316 358.977 45.8027 358.791 45.336C358.604 44.8507 358.324 44.4213 357.951 44.048C357.596 43.6747 357.129 43.3387 356.551 43.04C355.991 42.7227 355.337 42.452 354.591 42.228L344.175 39.148C343.279 38.8867 342.308 38.5413 341.263 38.112C340.236 37.664 339.256 37.0573 338.323 36.292C337.408 35.508 336.652 34.5187 336.055 33.324C335.476 32.1107 335.187 30.6173 335.187 28.844C335.187 26.2493 335.84 24.0747 337.147 22.32C338.472 20.5467 340.245 19.2213 342.467 18.344C344.707 17.4667 347.189 17.0373 349.915 17.056C352.677 17.0747 355.141 17.5507 357.307 18.484C359.472 19.3987 361.283 20.7333 362.739 22.488C364.195 24.2427 365.221 26.3613 365.819 28.844L358.567 30.104C358.268 28.6853 357.689 27.4813 356.831 26.492C355.991 25.484 354.955 24.7187 353.723 24.196C352.509 23.6733 351.212 23.3933 349.831 23.356C348.487 23.3373 347.236 23.5427 346.079 23.972C344.94 24.3827 344.016 24.98 343.307 25.764C342.616 26.548 342.271 27.4627 342.271 28.508C342.271 29.4973 342.569 30.3093 343.167 30.944C343.764 31.56 344.501 32.0547 345.379 32.428C346.275 32.7827 347.18 33.0813 348.095 33.324L355.319 35.34C356.308 35.6013 357.419 35.956 358.651 36.404C359.883 36.852 361.068 37.4773 362.207 38.28C363.345 39.0827 364.279 40.1373 365.007 41.444C365.753 42.7507 366.127 44.412 366.127 46.428C366.127 48.5187 365.688 50.3573 364.811 51.944C363.952 53.512 362.785 54.8187 361.311 55.864C359.836 56.9093 358.147 57.6933 356.243 58.216C354.357 58.7387 352.379 59 350.307 59Z" fill="black"/>
<path d="M399.911 58.16C397.914 58.5333 385.954 58.692 384.031 58.636C382.127 58.5987 380.42 58.2533 378.908 57.6C377.396 56.928 376.248 55.8733 375.464 54.436C374.773 53.1293 374.409 51.7947 374.372 50.432C374.334 49.0693 374.316 47.5293 374.316 45.812V19.52H381.035V45.42C381.035 46.6333 381.045 47.6973 381.063 48.612C381.101 49.5267 381.297 50.2733 381.651 50.852C382.323 51.972 383.397 52.5973 384.871 52.728C386.346 52.8587 398.026 52.784 399.911 52.504V58.16ZM368.827 33.212V27.92H399.911V33.212H368.827Z" fill="black"/>
<path d="M414.87 59C412.686 59 410.838 58.5893 409.326 57.768C407.814 56.928 406.666 55.8173 405.882 54.436C405.117 53.0547 404.734 51.5333 404.734 49.872C404.734 48.416 404.977 47.1093 405.462 45.952C405.947 44.776 406.694 43.768 407.702 42.928C408.71 42.0693 410.017 41.3693 411.622 40.828C412.835 40.436 414.254 40.0813 415.878 39.764C417.521 39.4467 419.294 39.1573 421.198 38.896C423.121 38.616 425.127 38.3173 427.218 38L424.81 39.372C424.829 37.2813 424.362 35.7413 423.41 34.752C422.458 33.7627 420.853 33.268 418.594 33.268C417.231 33.268 415.915 33.5853 414.646 34.22C413.377 34.8547 412.49 35.9467 411.986 37.496L405.826 35.564C406.573 33.0067 407.991 30.9533 410.082 29.404C412.191 27.8547 415.029 27.08 418.594 27.08C421.282 27.08 423.643 27.5187 425.678 28.396C427.731 29.2733 429.253 30.7107 430.242 32.708C430.783 33.772 431.11 34.864 431.222 35.984C431.334 37.0853 431.39 38.2893 431.39 39.596V58.16H425.482V51.608L426.462 52.672C425.099 54.856 423.503 56.4613 421.674 57.488C419.863 58.496 417.595 59 414.87 59ZM416.214 53.624C417.745 53.624 419.051 53.3533 420.134 52.812C421.217 52.2707 422.075 51.608 422.71 50.824C423.363 50.04 423.802 49.3027 424.026 48.612C424.381 47.7533 424.577 46.7733 424.614 45.672C424.67 44.552 424.698 43.6467 424.698 42.956L426.77 43.572C424.735 43.8893 422.99 44.1693 421.534 44.412C420.078 44.6547 418.827 44.888 417.782 45.112C416.737 45.3173 415.813 45.5507 415.01 45.812C414.226 46.092 413.563 46.4187 413.022 46.792C412.481 47.1653 412.061 47.5947 411.762 48.08C411.482 48.5653 411.342 49.1347 411.342 49.788C411.342 50.5347 411.529 51.1973 411.902 51.776C412.275 52.336 412.817 52.784 413.526 53.12C414.254 53.456 415.15 53.624 416.214 53.624Z" fill="black"/>
<path d="M459.596 58.16V43.6C459.596 42.648 459.53 41.5933 459.4 40.436C459.269 39.2787 458.961 38.168 458.476 37.104C458.009 36.0213 457.3 35.1347 456.348 34.444C455.414 33.7533 454.145 33.408 452.54 33.408C451.681 33.408 450.832 33.548 449.992 33.828C449.152 34.108 448.386 34.5933 447.696 35.284C447.024 35.956 446.482 36.8893 446.072 38.084C445.661 39.26 445.456 40.772 445.456 42.62L441.452 40.912C441.452 38.336 441.946 36.0027 442.936 33.912C443.944 31.8213 445.418 30.16 447.36 28.928C449.301 27.6773 451.69 27.052 454.528 27.052C456.768 27.052 458.616 27.4253 460.072 28.172C461.528 28.9187 462.685 29.8707 463.544 31.028C464.402 32.1853 465.037 33.4173 465.448 34.724C465.858 36.0307 466.12 37.272 466.232 38.448C466.362 39.6053 466.428 40.548 466.428 41.276V58.16H459.596ZM438.624 58.16V27.92H444.644V37.3H445.456V58.16H438.624Z" fill="black"/>
<path d="M485.366 59C482.585 59 480.158 58.3 478.086 56.9C476.014 55.5 474.409 53.596 473.27 51.188C472.132 48.78 471.562 46.064 471.562 43.04C471.562 39.9787 472.132 37.2533 473.27 34.864C474.428 32.456 476.061 30.5613 478.17 29.18C480.279 27.78 482.762 27.08 485.618 27.08C488.493 27.08 490.901 27.78 492.842 29.18C494.802 30.5613 496.286 32.456 497.294 34.864C498.302 37.272 498.806 39.9973 498.806 43.04C498.806 46.0453 498.302 48.7613 497.294 51.188C496.286 53.596 494.783 55.5 492.786 56.9C490.789 58.3 488.316 59 485.366 59ZM486.402 52.952C488.213 52.952 489.669 52.5413 490.77 51.72C491.89 50.88 492.702 49.7133 493.206 48.22C493.729 46.7267 493.99 45 493.99 43.04C493.99 41.0613 493.729 39.3347 493.206 37.86C492.702 36.3667 491.909 35.2093 490.826 34.388C489.744 33.548 488.344 33.128 486.626 33.128C484.816 33.128 483.322 33.576 482.146 34.472C480.97 35.3493 480.102 36.544 479.542 38.056C478.982 39.5493 478.702 41.2107 478.702 43.04C478.702 44.888 478.973 46.568 479.514 48.08C480.074 49.5733 480.923 50.7587 482.062 51.636C483.201 52.5133 484.647 52.952 486.402 52.952ZM493.99 58.16V36.936H493.15V17.84H499.954V58.16H493.99Z" fill="black"/>
<path d="M516.261 59C514.077 59 512.229 58.5893 510.717 57.768C509.205 56.928 508.057 55.8173 507.273 54.436C506.507 53.0547 506.125 51.5333 506.125 49.872C506.125 48.416 506.367 47.1093 506.853 45.952C507.338 44.776 508.085 43.768 509.093 42.928C510.101 42.0693 511.407 41.3693 513.013 40.828C514.226 40.436 515.645 40.0813 517.269 39.764C518.911 39.4467 520.685 39.1573 522.589 38.896C524.511 38.616 526.518 38.3173 528.609 38L526.201 39.372C526.219 37.2813 525.753 35.7413 524.801 34.752C523.849 33.7627 522.243 33.268 519.985 33.268C518.622 33.268 517.306 33.5853 516.037 34.22C514.767 34.8547 513.881 35.9467 513.377 37.496L507.217 35.564C507.963 33.0067 509.382 30.9533 511.473 29.404C513.582 27.8547 516.419 27.08 519.985 27.08C522.673 27.08 525.034 27.5187 527.069 28.396C529.122 29.2733 530.643 30.7107 531.633 32.708C532.174 33.772 532.501 34.864 532.613 35.984C532.725 37.0853 532.781 38.2893 532.781 39.596V58.16H526.873V51.608L527.853 52.672C526.49 54.856 524.894 56.4613 523.065 57.488C521.254 58.496 518.986 59 516.261 59ZM517.605 53.624C519.135 53.624 520.442 53.3533 521.525 52.812C522.607 52.2707 523.466 51.608 524.101 50.824C524.754 50.04 525.193 49.3027 525.417 48.612C525.771 47.7533 525.967 46.7733 526.005 45.672C526.061 44.552 526.089 43.6467 526.089 42.956L528.161 43.572C526.126 43.8893 524.381 44.1693 522.925 44.412C521.469 44.6547 520.218 44.888 519.173 45.112C518.127 45.3173 517.203 45.5507 516.401 45.812C515.617 46.092 514.954 46.4187 514.413 46.792C513.871 47.1653 513.451 47.5947 513.153 48.08C512.873 48.5653 512.733 49.1347 512.733 49.788C512.733 50.5347 512.919 51.1973 513.293 51.776C513.666 52.336 514.207 52.784 514.917 53.12C515.645 53.456 516.541 53.624 517.605 53.624Z" fill="black"/>
<path d="M540.07 58.16V27.92H546.034V35.284L545.306 34.332C545.68 33.324 546.174 32.4093 546.79 31.588C547.425 30.748 548.181 30.0573 549.058 29.516C549.805 29.012 550.626 28.62 551.522 28.34C552.437 28.0413 553.37 27.864 554.322 27.808C555.274 27.7333 556.198 27.7707 557.094 27.92V34.22C556.198 33.9587 555.162 33.8747 553.986 33.968C552.829 34.0613 551.784 34.388 550.85 34.948C549.917 35.452 549.152 36.096 548.554 36.88C547.976 37.664 547.546 38.56 547.266 39.568C546.986 40.5573 546.846 41.6307 546.846 42.788V58.16H540.07Z" fill="black"/>
<path d="M574.015 59C571.233 59 568.807 58.3 566.735 56.9C564.663 55.5 563.057 53.596 561.919 51.188C560.78 48.78 560.211 46.064 560.211 43.04C560.211 39.9787 560.78 37.2533 561.919 34.864C563.076 32.456 564.709 30.5613 566.819 29.18C568.928 27.78 571.411 27.08 574.267 27.08C577.141 27.08 579.549 27.78 581.491 29.18C583.451 30.5613 584.935 32.456 585.943 34.864C586.951 37.272 587.455 39.9973 587.455 43.04C587.455 46.0453 586.951 48.7613 585.943 51.188C584.935 53.596 583.432 55.5 581.435 56.9C579.437 58.3 576.964 59 574.015 59ZM575.051 52.952C576.861 52.952 578.317 52.5413 579.419 51.72C580.539 50.88 581.351 49.7133 581.855 48.22C582.377 46.7267 582.639 45 582.639 43.04C582.639 41.0613 582.377 39.3347 581.855 37.86C581.351 36.3667 580.557 35.2093 579.475 34.388C578.392 33.548 576.992 33.128 575.275 33.128C573.464 33.128 571.971 33.576 570.795 34.472C569.619 35.3493 568.751 36.544 568.191 38.056C567.631 39.5493 567.351 41.2107 567.351 43.04C567.351 44.888 567.621 46.568 568.163 48.08C568.723 49.5733 569.572 50.7587 570.711 51.636C571.849 52.5133 573.296 52.952 575.051 52.952ZM582.639 58.16V36.936H581.799V17.84H588.603V58.16H582.639Z" fill="black"/>
<defs>
<radialGradient id="paint0_radial_316_74" cx="0" cy="0" r="1" gradientUnits="userSpaceOnUse" gradientTransform="translate(59.8219 38.4257) rotate(90) scale(38.4254)">
<stop offset="0.645833" stop-color="#C2FF00"/>
<stop offset="1" stop-color="#C2FF00" stop-opacity="0"/>
</radialGradient>
</defs>
</svg>
