<svg width="83" height="90" viewBox="0 0 83 90" fill="none" xmlns="http://www.w3.org/2000/svg">
<path d="M64.5 3.2335e-08H25.5C24.1832 -0.000122332 22.8897 0.347054 21.75 1.0065L23.25 3.6015C23.9342 3.20703 24.7102 2.99958 25.5 3H64.5C65.6935 3 66.8381 3.47411 67.682 4.31802C68.5259 5.16193 69 6.30653 69 7.5V9H36V12H69V57.879L66 54.879V46.5C66 46.1022 65.842 45.7206 65.5607 45.4393C65.2794 45.158 64.8978 45 64.5 45H25.5C25.1022 45 24.7206 45.158 24.4393 45.4393C24.158 45.7206 24 46.1022 24 46.5V58.5C24 58.8978 24.158 59.2794 24.4393 59.5607C24.7206 59.842 25.1022 60 25.5 60H51.879L54.879 63H25.5C25.1022 63 24.7206 63.158 24.4393 63.4393C24.158 63.7206 24 64.1022 24 64.5V72H27V66H57.879L61.1295 69.2505L60.4635 70.416C59.6522 71.8445 59.0696 73.3912 58.737 75H21V43.5H18V82.5C18.0024 84.4884 18.7933 86.3947 20.1993 87.8007C21.6053 89.2067 23.5116 89.9976 25.5 90H64.5V87C64.5002 86.6593 64.3843 86.3286 64.1715 86.0625C62.581 84.0895 61.6244 81.6815 61.4274 79.1549C61.2303 76.6283 61.8021 74.1012 63.0675 71.9055L64.302 69.744C64.4641 69.4588 64.5282 69.1284 64.4846 68.8033C64.441 68.4782 64.292 68.1764 64.0605 67.944L51.3105 55.194C50.6157 54.4769 50.2306 53.5154 50.2385 52.5169C50.2464 51.5185 50.6465 50.5631 51.3526 49.8571C52.0586 49.151 53.014 48.7509 54.0124 48.743C55.0109 48.7351 55.9724 49.1202 56.6895 49.815L72.4395 65.565L74.5605 63.444L72 60.879V46.1595L76.1595 51.177C78.3131 53.6381 79.5001 56.7972 79.5 60.0675V90H82.5V60.0675C82.5044 56.0847 81.0656 52.2351 78.45 49.2315L72 41.4585V7.5C71.9976 5.51161 71.2067 3.60534 69.8007 2.19933C68.3947 0.793323 66.4884 0.00238182 64.5 3.2335e-08ZM25.5 87C24.3065 87 23.1619 86.5259 22.318 85.682C21.4741 84.8381 21 83.6935 21 82.5V78H58.428C58.3885 81.2119 59.3477 84.3568 61.173 87H25.5ZM47.3835 54C47.6376 55.1157 48.172 56.1482 48.936 57H27V48H48.936C48.172 48.8518 47.6376 49.8843 47.3835 51H39V54H47.3835ZM63 51.879L59.121 48H63V51.879Z" fill="#BAFF00"/>
<path d="M46.5 81H43.5V84H46.5V81Z" fill="#BAFF00"/>
<path d="M36 51H30V54H36V51Z" fill="#BAFF00"/>
<path d="M48 69H30V72H48V69Z" fill="#BAFF00"/>
<path d="M57 69H51V72H57V69Z" fill="#BAFF00"/>
<path d="M30 39V42H64.5C64.8978 42 65.2794 41.842 65.5607 41.5607C65.842 41.2794 66 40.8978 66 40.5V16.5C66 16.1022 65.842 15.7206 65.5607 15.4393C65.2794 15.158 64.8978 15 64.5 15H39V18H63V32.7975L56.46 27.3465C56.1943 27.1252 55.8602 27.0026 55.5145 26.9993C55.1687 26.996 54.8324 27.1123 54.5625 27.3285L48.1125 32.49L40.062 24.4395L37.941 26.5605L46.941 35.5605C47.202 35.8217 47.5501 35.9774 47.9188 35.9979C48.2874 36.0183 48.6507 35.9021 48.939 35.6715L55.482 30.4365L63 36.7035V39H30Z" fill="#BAFF00"/>
<path d="M43.5 22.5C43.5 23.39 43.7639 24.26 44.2584 25.0001C44.7529 25.7401 45.4557 26.3169 46.2779 26.6575C47.1002 26.9981 48.005 27.0872 48.8779 26.9135C49.7508 26.7399 50.5526 26.3113 51.182 25.682C51.8113 25.0526 52.2399 24.2508 52.4135 23.3779C52.5872 22.505 52.4981 21.6002 52.1575 20.7779C51.8169 19.9557 51.2401 19.2529 50.5001 18.7584C49.76 18.2639 48.89 18 48 18C46.8065 18 45.6619 18.4741 44.818 19.318C43.9741 20.1619 43.5 21.3065 43.5 22.5ZM48 21C48.2967 21 48.5867 21.088 48.8334 21.2528C49.08 21.4176 49.2723 21.6519 49.3858 21.926C49.4993 22.2001 49.5291 22.5017 49.4712 22.7926C49.4133 23.0836 49.2704 23.3509 49.0607 23.5607C48.8509 23.7704 48.5836 23.9133 48.2926 23.9712C48.0017 24.0291 47.7001 23.9994 47.426 23.8858C47.1519 23.7723 46.9176 23.58 46.7528 23.3334C46.588 23.0867 46.5 22.7967 46.5 22.5C46.5 22.1022 46.658 21.7206 46.9393 21.4393C47.2206 21.158 47.6022 21 48 21Z" fill="#BAFF00"/>
<path d="M0 22.5C0 26.0601 1.05568 29.5402 3.03355 32.5003C5.01141 35.4604 7.82263 37.7675 11.1117 39.1298C14.4008 40.4922 18.02 40.8487 21.5116 40.1541C25.0033 39.4596 28.2106 37.7453 30.7279 35.2279C33.2453 32.7106 34.9596 29.5033 35.6541 26.0116C36.3487 22.52 35.9922 18.9008 34.6298 15.6117C33.2675 12.3226 30.9604 9.51141 28.0003 7.53355C25.0402 5.55568 21.5601 4.5 18 4.5C13.2277 4.50516 8.65232 6.40324 5.27778 9.77778C1.90324 13.1523 0.00516162 17.7277 0 22.5ZM33 22.5C33 25.4667 32.1203 28.3668 30.472 30.8336C28.8238 33.3003 26.4811 35.2229 23.7403 36.3582C20.9994 37.4935 17.9834 37.7906 15.0736 37.2118C12.1639 36.633 9.49119 35.2044 7.3934 33.1066C5.29561 31.0088 3.867 28.3361 3.28822 25.4264C2.70944 22.5166 3.00649 19.5006 4.14181 16.7597C5.27712 14.0189 7.19971 11.6762 9.66645 10.028C12.1332 8.37973 15.0333 7.5 18 7.5C21.9769 7.50437 25.7897 9.08612 28.6018 11.8982C31.4139 14.7103 32.9956 18.5231 33 22.5Z" fill="#BAFF00"/>
<path d="M8.56045 24.4395L6.43945 26.5605L10.9395 31.0605C11.2207 31.3417 11.6022 31.4996 12 31.4996C12.3977 31.4996 12.7792 31.3417 13.0605 31.0605L28.0605 16.0605L25.9395 13.9395L12 27.879L8.56045 24.4395Z" fill="#BAFF00"/>
</svg>
