<svg width="90" height="89" viewBox="0 0 90 89" fill="none" xmlns="http://www.w3.org/2000/svg">
<path d="M45.0146 2.18073e-07C43.6932 -0.000396832 42.5611 0.541442 41.3078 1.22418C40.0566 1.91051 38.7308 2.79618 37.4283 3.69723C34.8213 5.49574 32.0563 7.40464 31.2029 7.71585C30.349 8.02615 27.0125 8.32419 23.8594 8.62212C22.283 8.77136 20.706 8.94878 19.3071 9.23128C17.9081 9.51369 16.6886 9.82227 15.6764 10.6712C14.6641 11.5201 14.1636 12.6517 13.6427 13.9808C13.1213 15.3095 12.6781 16.8457 12.2577 18.3725C11.4168 21.4261 10.5327 24.6656 10.0785 25.4524C9.62395 26.2389 7.26225 28.6194 5.03825 30.8745C3.92634 32.0021 2.83367 33.1439 1.9438 34.2599C1.05399 35.3759 0.300364 36.3868 0.0708151 37.6878C-0.158499 38.9887 0.203946 40.1992 0.658763 41.552C1.11329 42.9048 1.74827 44.3614 2.40759 45.8012C3.7263 48.681 5.1291 51.7197 5.28686 52.6145C5.44463 53.5092 5.16546 56.8586 4.91093 60.0156C4.78366 61.5942 4.68455 63.1807 4.71974 64.6074C4.75493 66.0342 4.83821 67.2911 5.49864 68.4353C6.15926 69.5795 7.20237 70.2736 8.42032 71.0175C9.63826 71.7615 11.0631 72.472 12.4937 73.1512C15.3548 74.5095 18.3836 75.9253 19.0796 76.5093C19.7755 77.0932 21.7185 79.8436 23.553 82.4254C24.4703 83.7164 25.4156 84.9952 26.3596 86.0655C27.3037 87.1357 28.1609 88.0352 29.4025 88.4871C30.6439 88.9388 31.8949 88.794 33.3061 88.581C34.7176 88.3684 36.2594 88.0107 37.7917 87.6112C40.8567 86.8128 44.0996 85.9563 45.008 85.9563C45.9164 85.956 49.1655 86.8126 52.2304 87.6112C53.7629 88.0105 55.3048 88.374 56.7159 88.587C58.1271 88.8001 59.3599 88.9359 60.6014 88.484C61.8428 88.0318 62.7184 87.1295 63.6625 86.0592C64.6065 84.9888 65.5487 83.7101 66.466 82.4192C68.3005 79.8373 70.2252 77.096 70.9212 76.5121C71.6169 75.9277 74.6641 74.5062 77.5251 73.1476C78.9556 72.4684 80.3776 71.752 81.5955 71.0079C82.8155 70.2675 83.8595 69.5697 84.5204 68.426C85.1813 67.2823 85.258 66.0279 85.2932 64.6011C85.3284 63.1744 85.2346 61.591 85.1085 60.0125C84.854 56.8555 84.5777 53.512 84.7355 52.6173C84.8927 51.7222 86.287 48.6777 87.6057 45.7981C88.2651 44.3583 88.8996 42.8986 89.3545 41.5458C89.809 40.1929 90.1567 38.9978 89.9275 37.6967C89.6981 36.3955 88.9687 35.3694 88.0786 34.2537C87.1886 33.1381 86.0932 32.005 84.9812 30.8775C82.7572 28.6225 80.3982 26.2361 79.944 25.4493C79.4895 24.6622 78.6027 21.4291 77.7618 18.3753C77.3413 16.8486 76.9009 15.3154 76.3798 13.9867C75.8584 12.6581 75.334 11.5143 74.3219 10.665C73.3097 9.81578 72.099 9.51696 70.7001 9.23449C69.3011 8.95191 67.7214 8.77427 66.1448 8.62527C62.9917 8.32746 59.6669 8.02673 58.8133 7.71602C57.9598 7.40578 55.1919 5.48067 52.585 3.68199C51.2816 2.78264 49.9588 1.90983 48.7056 1.22705C47.4524 0.544182 46.3358 3.13017e-05 45.0146 2.18073e-07ZM45.0176 3.09747C45.2264 3.09716 46.1585 3.37399 47.2301 3.95823C48.3015 4.54199 49.5571 5.36988 50.8277 6.24651C53.3688 7.99985 55.7281 9.89609 57.75 10.632C59.7718 11.3679 62.7837 11.4115 65.8573 11.7019C67.3942 11.8472 68.8863 12.0272 70.0823 12.2687C71.278 12.5099 72.1832 12.9194 72.3432 13.0537C72.5033 13.1873 73.0404 13.9819 73.4856 15.1178C73.9313 16.2536 74.3517 17.7059 74.7616 19.1942C75.5813 22.1707 76.1771 25.1443 77.2529 27.0076C78.3287 28.8711 80.592 30.8529 82.7598 33.051C83.8438 34.1501 84.8934 35.2403 85.6542 36.194C86.4151 37.1478 86.8424 38.028 86.8787 38.2337C86.9139 38.44 86.8066 39.4102 86.4177 40.5674C86.0289 41.7236 85.4389 43.1039 84.7963 44.5075C83.5109 47.3145 82.0542 49.9624 81.6806 52.0814C81.307 54.2004 81.7691 57.1932 82.0172 60.2706C82.141 61.8093 82.2289 63.3123 82.199 64.532C82.1697 65.7517 81.9427 66.6939 81.8384 66.8748C81.734 67.0554 81.0216 67.7358 79.9804 68.3718C78.9397 69.0087 77.5847 69.6829 76.1918 70.3477C73.4028 71.6718 70.5872 72.7529 68.939 74.136C67.2908 75.5192 65.7325 78.0962 63.9443 80.6128C63.0499 81.8709 62.16 83.0955 61.353 84.0104C60.5461 84.9258 59.7456 85.4962 59.5497 85.5684C59.3562 85.6442 58.3861 85.7113 57.1797 85.5291C55.9733 85.3469 54.5 84.9939 53.0062 84.6047C50.0187 83.8263 47.1475 82.8439 44.9959 82.8439C42.8442 82.8438 40.0094 83.8292 37.0218 84.6077C35.5279 84.9966 34.0366 85.3408 32.8303 85.5231C31.6239 85.7051 30.6625 85.646 30.4663 85.5747C30.2698 85.503 29.4761 84.9197 28.669 84.0047C27.8619 83.0897 26.9717 81.8746 26.0776 80.6163C24.2893 78.0995 22.719 75.5225 21.0708 74.1394C19.4225 72.7564 16.6162 71.6629 13.8272 70.3389C12.4327 69.6767 11.08 69.0078 10.0387 68.3718C8.99753 67.7359 8.2944 67.0586 8.18995 66.8777C8.08555 66.6965 7.85331 65.7516 7.8234 64.5319C7.79407 63.3122 7.89026 61.8062 8.01459 60.2675C8.26208 57.1901 8.70646 54.1973 8.33305 52.0783C7.95946 49.9593 6.51179 47.3083 5.22646 44.5013C4.58367 43.0977 3.97567 41.7207 3.58683 40.5642C3.19799 39.4077 3.10181 38.4483 3.13817 38.2426C3.17336 38.0366 3.59563 37.1538 4.35659 36.1999C5.11743 35.2461 6.16999 34.1467 7.25404 33.0478C9.42209 30.85 11.6821 28.8708 12.7579 27.0074C13.8337 25.144 14.4205 22.1644 15.2402 19.188C15.6501 17.6996 16.0918 16.2655 16.5373 15.1297C16.9825 13.9938 17.5169 13.1728 17.6769 13.0385C17.8394 12.9086 18.7425 12.5194 19.9351 12.272C21.1312 12.031 22.6294 11.8537 24.166 11.7082C27.2396 11.4179 30.2576 11.3743 32.2795 10.6384C34.3014 9.90258 36.6469 8.00863 39.1865 6.25265C40.4571 5.37601 41.722 4.54235 42.7933 3.95864C43.8653 3.37584 44.8084 3.09686 45.0176 3.09747ZM45.0118 14.5387C28.5435 14.5387 15.1616 27.9206 15.1615 44.3891C15.1615 60.8577 28.5435 74.2425 45.0118 74.2425C61.4801 74.2425 74.8651 60.8577 74.8651 44.3892C74.8651 27.9206 61.4801 14.5387 45.0118 14.5387ZM45.0118 17.6423C59.8027 17.6423 71.7615 29.5979 71.7616 44.3892C71.7615 59.1804 59.8027 71.136 45.0118 71.136C30.2208 71.136 18.2529 59.1804 18.2529 44.3891C18.2529 29.5978 30.2208 17.6423 45.0118 17.6423Z" fill="#418414"/>
<path fill-rule="evenodd" clip-rule="evenodd" d="M48.9004 29.1189C47.5673 26.2937 43.4327 26.2937 42.0996 29.1189L37.2777 39.3371C37.1088 39.6951 36.6485 39.8182 36.3147 39.5953L30.8636 35.9548C28.145 34.1392 24.5144 36.3816 25.0538 39.5406L27.8578 55.9625C28.157 57.7147 29.718 59 31.5478 59H59.4522C61.282 59 62.843 57.7148 63.1422 55.9625L65.9462 39.5406C66.4856 36.3816 62.855 34.1392 60.1364 35.9548L54.6853 39.5953C54.3515 39.8182 53.8912 39.6951 53.7223 39.3371L48.9004 29.1189ZM44.9068 30.3673C45.1394 29.8743 45.8606 29.8743 46.0932 30.3673L50.9151 40.5855C51.8827 42.6359 54.5212 43.3432 56.4354 42.0649L61.8865 38.4243C62.3602 38.108 62.9943 38.4982 62.9 39.0504L60.096 55.4723C60.0437 55.7784 59.7712 56.0025 59.4522 56.0025H31.5478C31.2288 56.0025 30.9563 55.7784 30.904 55.4723L28.1 39.0504C28.0057 38.4982 28.6398 38.108 29.1135 38.4243L34.5646 42.0649C36.4788 43.3432 39.1173 42.6359 40.0849 40.5855L44.9068 30.3673Z" fill="#418414"/>
</svg>
