<svg width="99" height="91" viewBox="0 0 99 91" fill="none" xmlns="http://www.w3.org/2000/svg">
<path d="M93.8199 0.819368H5.17968C2.66487 0.810528 0.516975 2.61369 0.0794536 5.08427C-0.35809 7.55925 1.04735 9.98559 3.41183 10.843V67.0079C3.41183 69.863 5.72774 72.1789 8.58719 72.1833H47.7322V79.5331C45.023 80.4038 43.3523 83.1175 43.7942 85.9283C44.2362 88.7348 46.6537 90.8075 49.5 90.8075C52.3463 90.8075 54.7637 88.7348 55.2058 85.9283C55.6477 83.1174 53.9772 80.4038 51.2678 79.5331V72.1833H90.4128C93.2723 72.1789 95.5882 69.863 95.5882 67.0079V10.843C97.9526 9.98558 99.3581 7.55925 98.9206 5.08427C98.483 2.61369 96.3346 0.810543 93.8199 0.819368ZM49.4998 87.2454C48.2622 87.2454 47.2634 86.2421 47.2634 85.009C47.2634 83.7714 48.2622 82.7682 49.4998 82.7682C50.7373 82.7682 51.7361 83.7715 51.7361 85.009C51.7361 86.242 50.7373 87.2454 49.4998 87.2454ZM92.0515 67.0076C92.0515 67.9136 91.3178 68.6473 90.4118 68.6473H8.5873C7.68128 68.6473 6.94764 67.9136 6.94764 67.0076V11.1696H92.0521L92.0515 67.0076ZM93.8193 7.63845L5.17912 7.63404C4.29077 7.60752 3.58811 6.87828 3.58811 5.99438C3.58811 5.11048 4.29082 4.38119 5.17912 4.35472H93.8193C94.7077 4.38124 95.4103 5.11048 95.4103 5.99438C95.4103 6.87828 94.7076 7.60756 93.8193 7.63404V7.63845Z" fill="#BAFF00"/>
<path d="M11.9944 24.8091H32.4528C33.4295 24.8091 34.2206 24.018 34.2206 23.0413C34.2206 22.0646 33.4295 21.2734 32.4528 21.2734H11.9944C11.0177 21.2734 10.2266 22.0646 10.2266 23.0413C10.2266 24.018 11.0177 24.8091 11.9944 24.8091Z" fill="#BAFF00"/>
<path d="M11.9944 35.0357H32.4528C33.4295 35.0357 34.2206 34.2446 34.2206 33.2678C34.2206 32.2911 33.4295 31.5 32.4528 31.5H11.9944C11.0177 31.5 10.2266 32.2911 10.2266 33.2678C10.2266 34.2446 11.0177 35.0357 11.9944 35.0357Z" fill="#BAFF00"/>
<path d="M11.9944 45.2627H32.4528C33.4295 45.2627 34.2206 44.4716 34.2206 43.4949C34.2206 42.5182 33.4295 41.7271 32.4528 41.7271H11.9944C11.0177 41.7271 10.2266 42.5182 10.2266 43.4949C10.2266 44.4716 11.0177 45.2627 11.9944 45.2627Z" fill="#BAFF00"/>
<path d="M36.4708 64.2583H88.0569C89.0337 64.2583 89.8248 63.4672 89.8248 62.4905C89.8248 61.5138 89.0337 60.7227 88.0569 60.7227H87.0669V29.7454C87.0669 29.2769 86.8813 28.8261 86.5499 28.4946C86.2184 28.1632 85.7676 27.9775 85.2991 27.9775H78.7227C77.7459 27.9775 76.9548 28.7687 76.9548 29.7454V60.7226H73.9141V36.5645C73.9141 36.096 73.7285 35.6452 73.397 35.3137C73.0656 34.9822 72.6148 34.7966 72.1462 34.7966H65.5743C64.5975 34.7966 63.8064 35.5877 63.8064 36.5644V60.7226H60.7657V33.1532C60.7657 32.6847 60.5801 32.2383 60.2486 31.9068C59.9171 31.5753 59.4663 31.3853 58.9978 31.3853H52.4214C51.4447 31.3853 50.6536 32.1764 50.6536 33.1532V60.7225H47.6173V39.9722C47.6173 39.5038 47.4273 39.053 47.0958 38.7215C46.7643 38.39 46.3179 38.2044 45.8494 38.2044H39.273C38.2963 38.2044 37.5052 38.9955 37.5052 39.9722V60.7225H36.471C35.4942 60.7225 34.7031 61.5136 34.7031 62.4904C34.7031 63.4671 35.4941 64.2583 36.4708 64.2583ZM80.49 31.5138H83.5307V60.7227H80.49V31.5138ZM67.3372 38.3333H70.3779V60.723H67.3416L67.3372 38.3333ZM54.1844 34.9258H57.2251L57.2295 60.7233H54.1888L54.1844 34.9258ZM41.0316 41.7452H44.0723L44.0767 60.7225H41.036L41.0316 41.7452Z" fill="#BAFF00"/>
</svg>
