<svg width="92" height="91" viewBox="0 0 92 91" fill="none" xmlns="http://www.w3.org/2000/svg">
<path d="M45.6306 0.897461C44.2911 0.897059 43.1435 1.44631 41.8731 2.13838C40.6048 2.83411 39.2608 3.73189 37.9405 4.64527C35.2978 6.46838 32.495 8.4034 31.63 8.71887C30.7643 9.03341 27.3821 9.33553 24.1859 9.63753C22.5879 9.78881 20.9894 9.96866 19.5713 10.255C18.1532 10.5413 16.917 10.8541 15.8909 11.7146C14.8647 12.5752 14.3574 13.7223 13.8294 15.0696C13.3009 16.4164 12.8515 17.9736 12.4254 19.5213C11.573 22.6167 10.6768 25.9005 10.2164 26.698C9.75565 27.4953 7.36163 29.9084 5.1072 32.1943C3.98007 33.3374 2.87245 34.4947 1.9704 35.626C1.06842 36.7573 0.304474 37.7821 0.0717841 39.1008C-0.160668 40.4196 0.206737 41.6466 0.667778 43.0179C1.12852 44.3892 1.77219 45.8658 2.44054 47.3252C3.77729 50.2444 5.19929 53.3247 5.35921 54.2317C5.51913 55.1386 5.23615 58.5339 4.97813 61.7341C4.84913 63.3343 4.74865 64.9424 4.78432 66.3887C4.81999 67.835 4.90441 69.1091 5.57389 70.269C6.24354 71.4289 7.30093 72.1325 8.53555 72.8865C9.77016 73.6407 11.2145 74.3609 12.6646 75.0494C15.5649 76.4263 18.6352 77.8614 19.3407 78.4534C20.0462 79.0453 22.0158 81.8333 23.8753 84.4505C24.8052 85.7591 25.7634 87.0554 26.7203 88.1403C27.6774 89.2252 28.5463 90.137 29.8049 90.5951C31.0633 91.053 32.3314 90.9062 33.7619 90.6903C35.1927 90.4747 36.7556 90.1121 38.3089 89.7072C41.4158 88.8979 44.703 88.0297 45.6239 88.0297C46.5447 88.0293 49.8383 88.8977 52.9452 89.7072C54.4986 90.1119 56.0616 90.4805 57.4921 90.6964C58.9226 90.9123 60.1722 91.05 61.4308 90.5919C62.6891 90.1335 63.5767 89.2189 64.5337 88.1339C65.4906 87.0489 66.4457 85.7527 67.3755 84.4442C69.2351 81.827 71.1862 79.0482 71.8917 78.4563C72.5969 77.8639 75.6858 76.4229 78.586 75.0458C80.0361 74.3572 81.4775 73.631 82.7121 72.8768C83.9488 72.1262 85.0071 71.4189 85.677 70.2596C86.347 69.1002 86.4247 67.8287 86.4605 66.3823C86.4961 64.9361 86.401 63.3311 86.2732 61.7309C86.0152 58.5307 85.7352 55.1415 85.8951 54.2346C86.0544 53.3273 87.4678 50.2411 88.8045 47.3221C89.4729 45.8626 90.1161 44.3829 90.5772 43.0116C91.038 41.6402 91.3905 40.4288 91.1581 39.1098C90.9256 37.7909 90.1862 36.7507 89.284 35.6198C88.3817 34.4889 87.2713 33.3403 86.1441 32.1973C83.8897 29.9115 81.4985 27.4924 81.038 26.6949C80.5773 25.897 79.6783 22.6197 78.826 19.5242C78.3997 17.9765 77.9533 16.4224 77.425 15.0755C76.8965 13.7287 76.3649 12.5693 75.339 11.7084C74.313 10.8475 73.0857 10.5446 71.6676 10.2583C70.2494 9.97184 68.6481 9.79176 67.05 9.64072C63.8537 9.33884 60.4835 9.034 59.6181 8.71904C58.753 8.40456 55.9472 6.4531 53.3046 4.62982C51.9833 3.71817 50.6425 2.83342 49.3721 2.1413C48.1017 1.44909 46.9699 0.897493 45.6306 0.897461ZM45.6337 4.0373C45.8453 4.03699 46.7902 4.3176 47.8764 4.90984C48.9625 5.50158 50.2353 6.3408 51.5232 7.22943C54.0992 9.00675 56.4907 10.9289 58.5403 11.6749C60.5898 12.4209 63.6429 12.4651 66.7585 12.7594C68.3165 12.9067 69.829 13.0892 71.0413 13.334C72.2534 13.5785 73.171 13.9936 73.3332 14.1297C73.4955 14.2651 74.0399 15.0706 74.4912 16.2221C74.9431 17.3735 75.3692 18.8456 75.7847 20.3542C76.6156 23.3715 77.2196 26.3857 78.3101 28.2746C79.4006 30.1635 81.6948 32.1725 83.8924 34.4006C84.9912 35.5147 86.0551 36.6199 86.8264 37.5866C87.5977 38.5535 88.0308 39.4457 88.0676 39.6542C88.1033 39.8634 87.9945 40.8468 87.6003 42.0198C87.2062 43.1919 86.6081 44.5911 85.9567 46.0138C84.6537 48.8593 83.1771 51.5434 82.7984 53.6914C82.4197 55.8393 82.8881 58.8731 83.1396 61.9926C83.265 63.5523 83.3542 65.0758 83.3239 66.3123C83.2942 67.5487 83.0641 68.5038 82.9583 68.6871C82.8525 68.8702 82.1303 69.5599 81.0749 70.2046C80.02 70.8503 78.6464 71.5336 77.2344 72.2075C74.4073 73.5497 71.5531 74.6456 69.8824 76.0477C68.2116 77.4498 66.632 80.062 64.8193 82.6131C63.9128 83.8884 63.0107 85.1297 62.1926 86.0572C61.3746 86.9851 60.5632 87.5633 60.3646 87.6365C60.1684 87.7133 59.1851 87.7813 57.9622 87.5967C56.7393 87.412 55.2458 87.0541 53.7316 86.6596C50.7032 85.8705 47.7927 84.8746 45.6116 84.8747C43.4305 84.8746 40.5569 85.8735 37.5285 86.6626C36.0141 87.0569 34.5024 87.4057 33.2796 87.5905C32.0566 87.7751 31.0821 87.7151 30.8832 87.6429C30.684 87.5702 29.8795 86.9788 29.0613 86.0514C28.2432 85.1239 27.3408 83.8921 26.4345 82.6166C24.6217 80.0654 23.0299 77.4531 21.3591 76.0511C19.6883 74.6491 16.8435 73.5408 14.0164 72.1986C12.6029 71.5274 11.2316 70.8493 10.1761 70.2046C9.12066 69.56 8.4079 68.8735 8.30202 68.6901C8.1962 68.5064 7.96078 67.5486 7.93046 66.3121C7.90073 65.0758 7.99823 63.5491 8.12427 61.9894C8.37515 58.8699 8.82561 55.8362 8.44708 53.6882C8.06838 51.5402 6.6009 48.853 5.29798 46.0075C4.6464 44.5848 4.03007 43.1889 3.63591 42.0166C3.24176 40.8443 3.14426 39.8717 3.18112 39.6632C3.21679 39.4544 3.64483 38.5595 4.4162 37.5925C5.18746 36.6257 6.25442 35.5113 7.35331 34.3974C9.55102 32.1695 11.842 30.1632 12.9325 28.2744C14.023 26.3854 14.6178 23.3651 15.4487 20.3479C15.8643 18.8392 16.3121 17.3855 16.7636 16.2341C17.2149 15.0827 17.7566 14.2505 17.9188 14.1143C18.0835 13.9826 18.999 13.5881 20.2079 13.3374C21.4204 13.093 22.939 12.9133 24.4967 12.7659C27.6124 12.4715 30.6717 12.4274 32.7212 11.6814C34.7708 10.9355 37.1484 9.01565 39.7228 7.23565C41.0107 6.34702 42.2929 5.50195 43.379 4.91026C44.4655 4.31948 45.4216 4.03668 45.6337 4.0373ZM45.6277 15.6351C28.9341 15.6351 15.369 29.2001 15.369 45.8938C15.369 62.5877 28.9341 76.1556 45.6277 76.1557C62.3214 76.1557 75.8896 62.5877 75.8896 45.8939C75.8896 29.2 62.3214 15.6351 45.6277 15.6351ZM45.6277 18.7811C60.6211 18.7811 72.7436 30.9002 72.7436 45.8939C72.7436 60.8875 60.6211 73.0066 45.6277 73.0066C30.6343 73.0066 18.5027 60.8875 18.5027 45.8938C18.5027 30.9002 30.6343 18.7811 45.6277 18.7811ZM60.1657 32.7968C58.6057 32.8091 57.118 33.4414 56.0213 34.5511L43.0501 47.7065L37.176 41.7494C34.897 39.4455 31.1299 39.4247 28.8255 41.703C26.5164 43.9769 26.495 47.741 28.7661 50.0504L38.834 60.2565C41.132 62.5878 44.9415 62.5878 47.2396 60.2564L64.4259 42.8398C66.6994 40.5304 66.6642 36.7662 64.3551 34.4924C63.2652 33.4222 61.7936 32.8576 60.269 32.8426C60.246 32.8269 60.2226 32.8119 60.1989 32.7976V32.8097C60.187 32.8098 60.1776 32.8006 60.1657 32.7968ZM60.1895 35.9428C60.9211 35.9357 61.6307 36.22 62.1526 36.7323C63.2504 37.8134 63.2695 39.524 62.1883 40.6218L45.0021 58.0385C43.9087 59.1475 42.1691 59.1477 41.0757 58.0385L31.0079 47.8447C29.927 46.7468 29.9341 45.024 31.0316 43.9429C31.0356 43.943 31.0396 43.943 31.0435 43.943C32.139 42.8597 33.8496 42.8725 34.933 43.9674L41.9254 51.049C42.0718 51.1973 42.2461 51.3151 42.4384 51.3955C42.6306 51.4759 42.8369 51.5173 43.0453 51.5173C43.2537 51.5173 43.46 51.4759 43.6522 51.3955C43.8444 51.3151 44.0188 51.1973 44.1651 51.049L58.2607 36.7568C58.7732 36.2391 59.4584 35.9445 60.1895 35.9428Z" fill="#418414"/>
</svg>
