<svg width="244" height="258" viewBox="0 0 244 258" fill="none" xmlns="http://www.w3.org/2000/svg">
<path d="M122 0.876953C122 0.876953 115.068 9.74328 112.295 11.221C111.422 11.6886 110 11.8617 108.33 12.0638C104.697 12.4967 99.895 13.0797 97.0455 17.1319C92.8864 23.0428 12.4773 154.56 9.70455 163.426C6.93182 172.293 0 258 0 258H244C244 258 237.068 172.293 234.295 163.426C231.523 154.56 151.114 23.0428 146.955 17.1319C144.105 13.0797 139.303 12.4967 135.67 12.0638C134 11.8617 132.578 11.6886 131.705 11.221C128.932 9.74328 122 0.876953 122 0.876953Z" fill="#291B14"/>
<path d="M106.75 49.642L123.386 23.043L137.25 49.642L158.045 42.2533L155.273 82.1518C152.5 80.6741 145.291 77.7187 138.636 77.7187C131.982 77.7187 125.697 80.6741 123.386 82.1518C121.538 80.6741 116.177 77.7187 109.523 77.7187C102.868 77.7187 93.8106 80.6741 90.1137 82.1518L85.9546 42.2533L106.75 49.642Z" fill="#87BDAB"/>
<path fill-rule="evenodd" clip-rule="evenodd" d="M58.2274 258.001C58.2276 206.281 60.4458 184.115 74.8639 184.115C109.37 184.115 109.522 182.65 110.891 169.514L110.909 169.338H122H123.387H134.477L134.496 169.514C135.864 182.65 136.017 184.115 170.523 184.115C184.941 184.115 187.159 206.281 187.159 258.001H123.387H122H58.2274Z" fill="#B0ABA1"/>
<path d="M163.591 127.962C163.591 158.994 144.342 181.16 123.386 181.16C102.431 181.16 80.4092 158.994 80.4092 127.962C80.4092 101.846 102.431 86.5859 123.386 86.5859C144.342 86.5859 163.591 101.846 163.591 127.962Z" fill="#C23657"/>
</svg>
