<svg width="500" height="501" viewBox="0 0 500 501" fill="none" xmlns="http://www.w3.org/2000/svg">
<rect y="0.180664" width="500" height="500" fill="#1E1E1E"/>
<circle cx="2" cy="2" r="2" transform="matrix(-1 0 0 1 261 237)" fill="url(#paint0_radial_566_23697)"/>
<circle cx="2" cy="2" r="2" transform="matrix(-1 0 0 1 268 496)" fill="url(#paint1_radial_566_23697)"/>
<circle cx="2" cy="2" r="2" transform="matrix(-1 0 0 1 443 362)" fill="url(#paint2_radial_566_23697)"/>
<circle cx="2.57741" cy="2.57741" r="2.57741" transform="matrix(-0.965926 0.258819 0.258819 0.965926 219.091 137.804)" fill="url(#paint3_radial_566_23697)"/>
<circle cx="2.01711" cy="2.01711" r="2.01711" transform="matrix(-0.965926 0.258819 0.258819 0.965926 219.984 135.939)" fill="url(#paint4_radial_566_23697)"/>
<circle cx="2.01711" cy="2.01711" r="2.01711" transform="matrix(-0.965926 0.258819 0.258819 0.965926 221.027 139.837)" fill="url(#paint5_radial_566_23697)"/>
<circle cx="2.01711" cy="2.01711" r="2.01711" transform="matrix(-0.965926 0.258819 0.258819 0.965926 216.087 136.984)" fill="url(#paint6_radial_566_23697)"/>
<circle cx="2.01711" cy="2.01711" r="2.01711" transform="matrix(-0.965926 0.258819 0.258819 0.965926 217.131 140.881)" fill="url(#paint7_radial_566_23697)"/>
<ellipse cx="1.70614" cy="1.80327" rx="1.70614" ry="1.80327" transform="matrix(-0.934582 -0.355748 -0.355748 0.934582 36.7773 72.71)" fill="url(#paint8_radial_566_23697)"/>
<ellipse cx="1.33524" cy="1.41126" rx="1.33524" ry="1.41126" transform="matrix(-0.934582 -0.355748 -0.355748 0.934582 37.999 72.001)" fill="url(#paint9_radial_566_23697)"/>
<ellipse cx="1.33524" cy="1.41126" rx="1.33524" ry="1.41126" transform="matrix(-0.934582 -0.355748 -0.355748 0.934582 36.9951 74.6387)" fill="url(#paint10_radial_566_23697)"/>
<ellipse cx="1.33524" cy="1.41126" rx="1.33524" ry="1.41126" transform="matrix(-0.934582 -0.355748 -0.355748 0.934582 35.5039 71.0508)" fill="url(#paint11_radial_566_23697)"/>
<ellipse cx="1.33524" cy="1.41126" rx="1.33524" ry="1.41126" transform="matrix(-0.934582 -0.355748 -0.355748 0.934582 34.5 73.6885)" fill="url(#paint12_radial_566_23697)"/>
<circle cx="3.78561" cy="3.78561" r="3.78561" transform="matrix(-0.972866 -0.231369 -0.231369 0.972866 78.2607 408.365)" fill="url(#paint13_radial_566_23697)"/>
<circle cx="2.96265" cy="2.96265" r="2.96265" transform="matrix(-0.972866 -0.231369 -0.231369 0.972866 80.7158 406.581)" fill="url(#paint14_radial_566_23697)"/>
<circle cx="2.96265" cy="2.96265" r="2.96265" transform="matrix(-0.972866 -0.231369 -0.231369 0.972866 79.3447 412.346)" fill="url(#paint15_radial_566_23697)"/>
<circle cx="2.96265" cy="2.96265" r="2.96265" transform="matrix(-0.972866 -0.231369 -0.231369 0.972866 74.9512 405.21)" fill="url(#paint16_radial_566_23697)"/>
<circle cx="2.96265" cy="2.96265" r="2.96265" transform="matrix(-0.972866 -0.231369 -0.231369 0.972866 73.5801 410.975)" fill="url(#paint17_radial_566_23697)"/>
<g opacity="0.5">
<circle cx="3.04665" cy="3.04665" r="3.04665" transform="matrix(-0.972866 -0.231369 -0.231369 0.972866 104.153 248.467)" fill="url(#paint18_radial_566_23697)"/>
<circle cx="2.38433" cy="2.38433" r="2.38433" transform="matrix(-0.972866 -0.231369 -0.231369 0.972866 106.129 247.031)" fill="url(#paint19_radial_566_23697)"/>
<circle cx="2.38433" cy="2.38433" r="2.38433" transform="matrix(-0.972866 -0.231369 -0.231369 0.972866 105.026 251.67)" fill="url(#paint20_radial_566_23697)"/>
<circle cx="2.38433" cy="2.38433" r="2.38433" transform="matrix(-0.972866 -0.231369 -0.231369 0.972866 101.49 245.928)" fill="url(#paint21_radial_566_23697)"/>
<circle cx="2.38433" cy="2.38433" r="2.38433" transform="matrix(-0.972866 -0.231369 -0.231369 0.972866 100.387 250.566)" fill="url(#paint22_radial_566_23697)"/>
</g>
<circle cx="2.93271" cy="2.93271" r="2.93271" transform="matrix(-1 0 0 1 399.65 178.785)" fill="url(#paint23_radial_566_23697)"/>
<circle cx="2.29517" cy="2.29517" r="2.29517" transform="matrix(-1 0 0 1 401.181 177)" fill="url(#paint24_radial_566_23697)"/>
<circle cx="2.29517" cy="2.29517" r="2.29517" transform="matrix(-1 0 0 1 401.181 181.59)" fill="url(#paint25_radial_566_23697)"/>
<circle cx="2.29517" cy="2.29517" r="2.29517" transform="matrix(-1 0 0 1 396.59 177)" fill="url(#paint26_radial_566_23697)"/>
<circle cx="2.29517" cy="2.29517" r="2.29517" transform="matrix(-1 0 0 1 396.59 181.59)" fill="url(#paint27_radial_566_23697)"/>
<circle cx="1" cy="1" r="1" transform="matrix(-1 0 0 1 103 105)" fill="url(#paint28_radial_566_23697)"/>
<circle cx="2" cy="2" r="2" transform="matrix(-1 0 0 1 307 325.181)" fill="url(#paint29_radial_566_23697)"/>
<circle cx="1.5" cy="1.5" r="1.5" transform="matrix(-1 0 0 1 407 194)" fill="url(#paint30_radial_566_23697)"/>
<circle cx="2" cy="2" r="2" transform="matrix(-1 0 0 1 443 445.181)" fill="url(#paint31_radial_566_23697)"/>
<circle cx="1" cy="1" r="1" transform="matrix(-1 0 0 1 322 166)" fill="url(#paint32_radial_566_23697)"/>
<circle cx="2.5" cy="2.5" r="2.5" transform="matrix(-1 0 0 1 329 118)" fill="url(#paint33_radial_566_23697)" fill-opacity="0.5"/>
<circle cx="2.5" cy="2.5" r="2.5" transform="matrix(-1 0 0 1 278 334)" fill="url(#paint34_radial_566_23697)" fill-opacity="0.2"/>
<circle cx="1" cy="1" r="1" transform="matrix(-1 0 0 1 123 92)" fill="url(#paint35_radial_566_23697)" fill-opacity="0.5"/>
<circle cx="2" cy="2" r="2" transform="matrix(-1 0 0 1 303 5.18066)" fill="url(#paint36_radial_566_23697)" fill-opacity="0.5"/>
<circle cx="2" cy="2" r="2" transform="matrix(-1 0 0 1 403 58.1807)" fill="url(#paint37_radial_566_23697)" fill-opacity="0.5"/>
<circle cx="1" cy="1" r="1" transform="matrix(-1 0 0 1 500 91)" fill="url(#paint38_radial_566_23697)" fill-opacity="0.5"/>
<circle cx="2" cy="2" r="2" transform="matrix(-1 0 0 1 412 449.181)" fill="url(#paint39_radial_566_23697)" fill-opacity="0.5"/>
<circle cx="2" cy="2" r="2" transform="matrix(-1 0 0 1 224 391.181)" fill="url(#paint40_radial_566_23697)" fill-opacity="0.5"/>
<circle cx="2" cy="2" r="2" transform="matrix(-1 0 0 1 82 256.181)" fill="url(#paint41_radial_566_23697)" fill-opacity="0.5"/>
<defs>
<radialGradient id="paint0_radial_566_23697" cx="0" cy="0" r="1" gradientUnits="userSpaceOnUse" gradientTransform="translate(2 2) rotate(90) scale(2)">
<stop offset="0.078125" stop-color="white"/>
<stop offset="1" stop-color="#D9D9D9" stop-opacity="0"/>
<stop offset="1" stop-color="white" stop-opacity="0"/>
</radialGradient>
<radialGradient id="paint1_radial_566_23697" cx="0" cy="0" r="1" gradientUnits="userSpaceOnUse" gradientTransform="translate(2 2) rotate(90) scale(2)">
<stop offset="0.078125" stop-color="white"/>
<stop offset="1" stop-color="#D9D9D9" stop-opacity="0"/>
<stop offset="1" stop-color="white" stop-opacity="0"/>
</radialGradient>
<radialGradient id="paint2_radial_566_23697" cx="0" cy="0" r="1" gradientUnits="userSpaceOnUse" gradientTransform="translate(2 2) rotate(90) scale(2)">
<stop offset="0.078125" stop-color="white"/>
<stop offset="1" stop-color="#D9D9D9" stop-opacity="0"/>
<stop offset="1" stop-color="white" stop-opacity="0"/>
</radialGradient>
<radialGradient id="paint3_radial_566_23697" cx="0" cy="0" r="1" gradientUnits="userSpaceOnUse" gradientTransform="translate(2.57741 2.57741) rotate(90) scale(2.57741)">
<stop offset="0.078125" stop-color="white"/>
<stop offset="1" stop-color="#D9D9D9" stop-opacity="0"/>
<stop offset="1" stop-color="white" stop-opacity="0"/>
</radialGradient>
<radialGradient id="paint4_radial_566_23697" cx="0" cy="0" r="1" gradientUnits="userSpaceOnUse" gradientTransform="translate(2.01711 2.01711) rotate(90) scale(2.01711)">
<stop offset="0.078125" stop-color="#1E1E1E"/>
<stop offset="1" stop-color="#1E1E1E" stop-opacity="0"/>
</radialGradient>
<radialGradient id="paint5_radial_566_23697" cx="0" cy="0" r="1" gradientUnits="userSpaceOnUse" gradientTransform="translate(2.01711 2.01711) rotate(90) scale(2.01711)">
<stop offset="0.078125" stop-color="#1E1E1E"/>
<stop offset="1" stop-color="#1E1E1E" stop-opacity="0"/>
</radialGradient>
<radialGradient id="paint6_radial_566_23697" cx="0" cy="0" r="1" gradientUnits="userSpaceOnUse" gradientTransform="translate(2.01711 2.01711) rotate(90) scale(2.01711)">
<stop offset="0.078125" stop-color="#1E1E1E"/>
<stop offset="1" stop-color="#1E1E1E" stop-opacity="0"/>
</radialGradient>
<radialGradient id="paint7_radial_566_23697" cx="0" cy="0" r="1" gradientUnits="userSpaceOnUse" gradientTransform="translate(2.01711 2.01711) rotate(90) scale(2.01711)">
<stop offset="0.078125" stop-color="#1E1E1E"/>
<stop offset="1" stop-color="#1E1E1E" stop-opacity="0"/>
</radialGradient>
<radialGradient id="paint8_radial_566_23697" cx="0" cy="0" r="1" gradientUnits="userSpaceOnUse" gradientTransform="translate(1.70614 1.80327) rotate(90) scale(1.80327 1.70614)">
<stop offset="0.078125" stop-color="white"/>
<stop offset="1" stop-color="#D9D9D9" stop-opacity="0"/>
<stop offset="1" stop-color="white" stop-opacity="0"/>
</radialGradient>
<radialGradient id="paint9_radial_566_23697" cx="0" cy="0" r="1" gradientUnits="userSpaceOnUse" gradientTransform="translate(1.33524 1.41126) rotate(90) scale(1.41126 1.33524)">
<stop offset="0.078125" stop-color="#1E1E1E"/>
<stop offset="1" stop-color="#1E1E1E" stop-opacity="0"/>
</radialGradient>
<radialGradient id="paint10_radial_566_23697" cx="0" cy="0" r="1" gradientUnits="userSpaceOnUse" gradientTransform="translate(1.33524 1.41126) rotate(90) scale(1.41126 1.33524)">
<stop offset="0.078125" stop-color="#1E1E1E"/>
<stop offset="1" stop-color="#1E1E1E" stop-opacity="0"/>
</radialGradient>
<radialGradient id="paint11_radial_566_23697" cx="0" cy="0" r="1" gradientUnits="userSpaceOnUse" gradientTransform="translate(1.33524 1.41126) rotate(90) scale(1.41126 1.33524)">
<stop offset="0.078125" stop-color="#1E1E1E"/>
<stop offset="1" stop-color="#1E1E1E" stop-opacity="0"/>
</radialGradient>
<radialGradient id="paint12_radial_566_23697" cx="0" cy="0" r="1" gradientUnits="userSpaceOnUse" gradientTransform="translate(1.33524 1.41126) rotate(90) scale(1.41126 1.33524)">
<stop offset="0.078125" stop-color="#1E1E1E"/>
<stop offset="1" stop-color="#1E1E1E" stop-opacity="0"/>
</radialGradient>
<radialGradient id="paint13_radial_566_23697" cx="0" cy="0" r="1" gradientUnits="userSpaceOnUse" gradientTransform="translate(3.78561 3.78561) rotate(90) scale(3.78561)">
<stop offset="0.078125" stop-color="white"/>
<stop offset="1" stop-color="#D9D9D9" stop-opacity="0"/>
<stop offset="1" stop-color="white" stop-opacity="0"/>
</radialGradient>
<radialGradient id="paint14_radial_566_23697" cx="0" cy="0" r="1" gradientUnits="userSpaceOnUse" gradientTransform="translate(2.96265 2.96265) rotate(90) scale(2.96265)">
<stop offset="0.078125" stop-color="#1E1E1E"/>
<stop offset="1" stop-color="#1E1E1E" stop-opacity="0"/>
</radialGradient>
<radialGradient id="paint15_radial_566_23697" cx="0" cy="0" r="1" gradientUnits="userSpaceOnUse" gradientTransform="translate(2.96265 2.96265) rotate(90) scale(2.96265)">
<stop offset="0.078125" stop-color="#1E1E1E"/>
<stop offset="1" stop-color="#1E1E1E" stop-opacity="0"/>
</radialGradient>
<radialGradient id="paint16_radial_566_23697" cx="0" cy="0" r="1" gradientUnits="userSpaceOnUse" gradientTransform="translate(2.96265 2.96265) rotate(90) scale(2.96265)">
<stop offset="0.078125" stop-color="#1E1E1E"/>
<stop offset="1" stop-color="#1E1E1E" stop-opacity="0"/>
</radialGradient>
<radialGradient id="paint17_radial_566_23697" cx="0" cy="0" r="1" gradientUnits="userSpaceOnUse" gradientTransform="translate(2.96265 2.96265) rotate(90) scale(2.96265)">
<stop offset="0.078125" stop-color="#1E1E1E"/>
<stop offset="1" stop-color="#1E1E1E" stop-opacity="0"/>
</radialGradient>
<radialGradient id="paint18_radial_566_23697" cx="0" cy="0" r="1" gradientUnits="userSpaceOnUse" gradientTransform="translate(3.04665 3.04665) rotate(90) scale(3.04665)">
<stop offset="0.078125" stop-color="white"/>
<stop offset="1" stop-color="#D9D9D9" stop-opacity="0"/>
<stop offset="1" stop-color="white" stop-opacity="0"/>
</radialGradient>
<radialGradient id="paint19_radial_566_23697" cx="0" cy="0" r="1" gradientUnits="userSpaceOnUse" gradientTransform="translate(2.38433 2.38433) rotate(90) scale(2.38433)">
<stop offset="0.078125" stop-color="#1E1E1E"/>
<stop offset="1" stop-color="#1E1E1E" stop-opacity="0"/>
</radialGradient>
<radialGradient id="paint20_radial_566_23697" cx="0" cy="0" r="1" gradientUnits="userSpaceOnUse" gradientTransform="translate(2.38433 2.38433) rotate(90) scale(2.38433)">
<stop offset="0.078125" stop-color="#1E1E1E"/>
<stop offset="1" stop-color="#1E1E1E" stop-opacity="0"/>
</radialGradient>
<radialGradient id="paint21_radial_566_23697" cx="0" cy="0" r="1" gradientUnits="userSpaceOnUse" gradientTransform="translate(2.38433 2.38433) rotate(90) scale(2.38433)">
<stop offset="0.078125" stop-color="#1E1E1E"/>
<stop offset="1" stop-color="#1E1E1E" stop-opacity="0"/>
</radialGradient>
<radialGradient id="paint22_radial_566_23697" cx="0" cy="0" r="1" gradientUnits="userSpaceOnUse" gradientTransform="translate(2.38433 2.38433) rotate(90) scale(2.38433)">
<stop offset="0.078125" stop-color="#1E1E1E"/>
<stop offset="1" stop-color="#1E1E1E" stop-opacity="0"/>
</radialGradient>
<radialGradient id="paint23_radial_566_23697" cx="0" cy="0" r="1" gradientUnits="userSpaceOnUse" gradientTransform="translate(2.93271 2.93271) rotate(90) scale(2.93271)">
<stop offset="0.078125" stop-color="white"/>
<stop offset="1" stop-color="#D9D9D9" stop-opacity="0"/>
<stop offset="1" stop-color="white" stop-opacity="0"/>
</radialGradient>
<radialGradient id="paint24_radial_566_23697" cx="0" cy="0" r="1" gradientUnits="userSpaceOnUse" gradientTransform="translate(2.29517 2.29517) rotate(90) scale(2.29517)">
<stop offset="0.078125" stop-color="#1E1E1E"/>
<stop offset="1" stop-color="#1E1E1E" stop-opacity="0"/>
</radialGradient>
<radialGradient id="paint25_radial_566_23697" cx="0" cy="0" r="1" gradientUnits="userSpaceOnUse" gradientTransform="translate(2.29517 2.29517) rotate(90) scale(2.29517)">
<stop offset="0.078125" stop-color="#1E1E1E"/>
<stop offset="1" stop-color="#1E1E1E" stop-opacity="0"/>
</radialGradient>
<radialGradient id="paint26_radial_566_23697" cx="0" cy="0" r="1" gradientUnits="userSpaceOnUse" gradientTransform="translate(2.29517 2.29517) rotate(90) scale(2.29517)">
<stop offset="0.078125" stop-color="#1E1E1E"/>
<stop offset="1" stop-color="#1E1E1E" stop-opacity="0"/>
</radialGradient>
<radialGradient id="paint27_radial_566_23697" cx="0" cy="0" r="1" gradientUnits="userSpaceOnUse" gradientTransform="translate(2.29517 2.29517) rotate(90) scale(2.29517)">
<stop offset="0.078125" stop-color="#1E1E1E"/>
<stop offset="1" stop-color="#1E1E1E" stop-opacity="0"/>
</radialGradient>
<radialGradient id="paint28_radial_566_23697" cx="0" cy="0" r="1" gradientUnits="userSpaceOnUse" gradientTransform="translate(1 1) rotate(90)">
<stop offset="0.078125" stop-color="white"/>
<stop offset="1" stop-color="#D9D9D9" stop-opacity="0"/>
<stop offset="1" stop-color="white" stop-opacity="0"/>
</radialGradient>
<radialGradient id="paint29_radial_566_23697" cx="0" cy="0" r="1" gradientUnits="userSpaceOnUse" gradientTransform="translate(2 2) rotate(90) scale(2)">
<stop offset="0.078125" stop-color="white"/>
<stop offset="1" stop-color="#D9D9D9" stop-opacity="0"/>
<stop offset="1" stop-color="white" stop-opacity="0"/>
</radialGradient>
<radialGradient id="paint30_radial_566_23697" cx="0" cy="0" r="1" gradientUnits="userSpaceOnUse" gradientTransform="translate(1.5 1.5) rotate(90) scale(1.5)">
<stop offset="0.078125" stop-color="white"/>
<stop offset="1" stop-color="#D9D9D9" stop-opacity="0"/>
<stop offset="1" stop-color="white" stop-opacity="0"/>
</radialGradient>
<radialGradient id="paint31_radial_566_23697" cx="0" cy="0" r="1" gradientUnits="userSpaceOnUse" gradientTransform="translate(2 2) rotate(90) scale(2)">
<stop offset="0.078125" stop-color="white"/>
<stop offset="1" stop-color="#D9D9D9" stop-opacity="0"/>
<stop offset="1" stop-color="white" stop-opacity="0"/>
</radialGradient>
<radialGradient id="paint32_radial_566_23697" cx="0" cy="0" r="1" gradientUnits="userSpaceOnUse" gradientTransform="translate(1 1) rotate(90)">
<stop offset="0.078125" stop-color="white"/>
<stop offset="1" stop-color="#D9D9D9" stop-opacity="0"/>
<stop offset="1" stop-color="white" stop-opacity="0"/>
</radialGradient>
<radialGradient id="paint33_radial_566_23697" cx="0" cy="0" r="1" gradientUnits="userSpaceOnUse" gradientTransform="translate(2.5 2.5) rotate(90) scale(2.5)">
<stop offset="0.078125" stop-color="white"/>
<stop offset="1" stop-color="#D9D9D9" stop-opacity="0"/>
<stop offset="1" stop-color="white" stop-opacity="0"/>
</radialGradient>
<radialGradient id="paint34_radial_566_23697" cx="0" cy="0" r="1" gradientUnits="userSpaceOnUse" gradientTransform="translate(2.5 2.5) rotate(90) scale(2.5)">
<stop offset="0.078125" stop-color="white"/>
<stop offset="1" stop-color="#D9D9D9" stop-opacity="0"/>
<stop offset="1" stop-color="white" stop-opacity="0"/>
</radialGradient>
<radialGradient id="paint35_radial_566_23697" cx="0" cy="0" r="1" gradientUnits="userSpaceOnUse" gradientTransform="translate(1 1) rotate(90)">
<stop offset="0.078125" stop-color="white"/>
<stop offset="1" stop-color="#D9D9D9" stop-opacity="0"/>
<stop offset="1" stop-color="white" stop-opacity="0"/>
</radialGradient>
<radialGradient id="paint36_radial_566_23697" cx="0" cy="0" r="1" gradientUnits="userSpaceOnUse" gradientTransform="translate(2 2) rotate(90) scale(2)">
<stop offset="0.078125" stop-color="white"/>
<stop offset="1" stop-color="#D9D9D9" stop-opacity="0"/>
<stop offset="1" stop-color="white" stop-opacity="0"/>
</radialGradient>
<radialGradient id="paint37_radial_566_23697" cx="0" cy="0" r="1" gradientUnits="userSpaceOnUse" gradientTransform="translate(2 2) rotate(90) scale(2)">
<stop offset="0.078125" stop-color="white"/>
<stop offset="1" stop-color="#D9D9D9" stop-opacity="0"/>
<stop offset="1" stop-color="white" stop-opacity="0"/>
</radialGradient>
<radialGradient id="paint38_radial_566_23697" cx="0" cy="0" r="1" gradientUnits="userSpaceOnUse" gradientTransform="translate(1 1) rotate(90)">
<stop offset="0.078125" stop-color="white"/>
<stop offset="1" stop-color="#D9D9D9" stop-opacity="0"/>
<stop offset="1" stop-color="white" stop-opacity="0"/>
</radialGradient>
<radialGradient id="paint39_radial_566_23697" cx="0" cy="0" r="1" gradientUnits="userSpaceOnUse" gradientTransform="translate(2 2) rotate(90) scale(2)">
<stop offset="0.078125" stop-color="white"/>
<stop offset="1" stop-color="#D9D9D9" stop-opacity="0"/>
<stop offset="1" stop-color="white" stop-opacity="0"/>
</radialGradient>
<radialGradient id="paint40_radial_566_23697" cx="0" cy="0" r="1" gradientUnits="userSpaceOnUse" gradientTransform="translate(2 2) rotate(90) scale(2)">
<stop offset="0.078125" stop-color="white"/>
<stop offset="1" stop-color="#D9D9D9" stop-opacity="0"/>
<stop offset="1" stop-color="white" stop-opacity="0"/>
</radialGradient>
<radialGradient id="paint41_radial_566_23697" cx="0" cy="0" r="1" gradientUnits="userSpaceOnUse" gradientTransform="translate(2 2) rotate(90) scale(2)">
<stop offset="0.078125" stop-color="white"/>
<stop offset="1" stop-color="#D9D9D9" stop-opacity="0"/>
<stop offset="1" stop-color="white" stop-opacity="0"/>
</radialGradient>
</defs>
</svg>
