<svg width="90" height="90" viewBox="0 0 90 90" fill="none" xmlns="http://www.w3.org/2000/svg">
<path fill-rule="evenodd" clip-rule="evenodd" d="M64.302 16.7221C59.4404 16.7221 55.4992 20.6228 55.4992 25.4347C55.4992 30.2465 59.4404 34.1473 64.302 34.1473C69.1637 34.1473 73.1048 30.2465 73.1048 25.4347C73.1048 20.6228 69.1637 16.7221 64.302 16.7221ZM59.4528 25.4347C59.4528 22.784 61.6238 20.6351 64.302 20.6351C66.9802 20.6351 69.1513 22.784 69.1513 25.4347C69.1513 28.0854 66.9802 30.2343 64.302 30.2343C61.6238 30.2343 59.4528 28.0854 59.4528 25.4347Z" fill="#BAFF00"/>
<path fill-rule="evenodd" clip-rule="evenodd" d="M60.0661 0C59.029 0 58.1682 0.793264 58.0943 1.81712L57.7217 6.98028C56.7665 7.31393 55.8452 7.71804 54.9641 8.18621L51.2094 4.88294C50.4271 4.19471 49.2384 4.22928 48.4983 4.96179L43.6169 9.79327C42.8768 10.5258 42.8418 11.7023 43.5372 12.4766L46.8747 16.1929C46.4018 17.0648 45.9936 17.9766 45.6566 18.9218L40.44 19.2906C39.4055 19.3637 38.604 20.2157 38.604 21.2421V29.6272C38.604 30.6537 39.4055 31.5056 40.44 31.5788L45.6566 31.9475C45.9539 32.7813 46.3066 33.5891 46.7102 34.3664L43.5375 37.899C42.8422 38.6733 42.8771 39.8498 43.6172 40.5823L48.4987 45.4138C49.2388 46.1463 50.4275 46.1809 51.2098 45.4927L54.6175 42.4946C55.6027 43.0435 56.6405 43.5114 57.7217 43.8891L58.0943 49.0522C58.1682 50.0761 59.029 50.8694 60.0661 50.8694H68.5379C69.575 50.8694 70.4358 50.0761 70.5097 49.0522L70.8823 43.8891C71.8514 43.5506 72.7856 43.1396 73.6783 42.6627L76.8955 45.4931C77.6778 46.1814 78.8665 46.1468 79.6066 45.4143L84.4881 40.5828C85.2282 39.8503 85.2631 38.6738 84.5678 37.8995L81.7081 34.7154C82.19 33.8317 82.6054 32.9069 82.9475 31.9476L88.1641 31.5788C89.1985 31.5056 90 30.6537 90 29.6272V21.2421C90 20.2157 89.1985 19.3637 88.1641 19.2906L82.9475 18.9218C82.5659 17.8517 82.0931 16.8245 81.5385 15.8495L84.5681 12.4761C85.2635 11.7019 85.2285 10.5253 84.4884 9.79282L79.6069 4.96133C78.8669 4.22882 77.6781 4.19425 76.8959 4.88248L73.3262 8.02305C72.5408 7.62358 71.7247 7.27453 70.8823 6.98028L70.5097 1.81712C70.4358 0.793264 69.575 0 68.5379 0H60.0661ZM61.5693 8.58763L61.9067 3.91303H66.6973L67.0347 8.58763C67.0945 9.41579 67.6758 10.1164 68.485 10.3354C69.9344 10.7278 71.3012 11.3194 72.5538 12.0794C73.2963 12.5299 74.2493 12.4464 74.9002 11.8737L78.1294 9.03274L80.3749 11.2553L77.6084 14.3357C77.0097 15.0023 76.9423 15.9852 77.4444 16.7257C78.3825 18.1095 79.1027 19.6483 79.5576 21.2946C79.7789 22.0954 80.4867 22.6708 81.3235 22.73L86.0465 23.0639V27.8055L81.3235 28.1394C80.4867 28.1985 79.7789 28.7739 79.5576 29.5748C79.1301 31.1218 78.4684 32.5738 77.6118 33.8915C77.1319 34.6297 77.2075 35.5939 77.7967 36.25L80.3745 39.1203L78.129 41.3429L75.2289 38.7914C74.566 38.2082 73.5918 38.1334 72.846 38.6083C71.5148 39.4561 70.0478 40.1109 68.485 40.5339C67.6758 40.7529 67.0945 41.4536 67.0347 42.2817L66.6973 46.9563H61.9067L61.5693 42.2817C61.5096 41.4536 60.9282 40.7529 60.1191 40.5339C58.4557 40.0837 56.9009 39.3709 55.5029 38.4423C54.7546 37.9454 53.7616 38.0122 53.0881 38.6047L49.9763 41.3424L47.7307 39.1199L50.6006 35.9243C51.1793 35.28 51.2637 34.3369 50.8085 33.602C50.0406 32.3622 49.4429 31.0093 49.0465 29.5748C48.8252 28.7739 48.1173 28.1985 47.2806 28.1394L42.5576 27.8055V23.0639L47.2806 22.73C48.1173 22.6708 48.8252 22.0954 49.0465 21.2946C49.4704 19.7602 50.1249 18.3192 50.9713 17.0101C51.4485 16.2723 51.3719 15.3104 50.7838 14.6556L47.7304 11.2557L49.9759 9.03319L53.411 12.0553C54.0725 12.6373 55.0444 12.7131 55.7899 12.2408C57.1126 11.4029 58.5687 10.7551 60.1191 10.3354C60.9282 10.1164 61.5096 9.41579 61.5693 8.58763Z" fill="#BAFF00"/>
<path d="M19.9907 7.81779C24.7352 3.7587 30.1756 1.6747 34.4664 0.887014L34.4631 0.889986C34.5837 0.867242 34.7081 0.855338 34.8354 0.855338C35.9271 0.855338 36.8122 1.7313 36.8122 2.81185C36.8122 3.81978 36.0421 4.64969 35.0525 4.7567L35.0531 4.75927C31.3993 5.45214 26.6838 7.26388 22.5761 10.7782C17.8403 14.8298 13.8316 21.2084 13.2295 31.0058C13.1615 32.1119 12.8617 33.2418 12.2776 34.2645L4.03957 48.6888C3.8628 48.9983 3.96907 49.3909 4.27849 49.5715L13.0574 54.6953L14.9504 72.3721C15.2701 75.3576 17.8144 77.623 20.8476 77.623H31.784V88.0435C31.784 89.124 30.8989 90 29.8072 90C28.7155 90 27.8304 89.124 27.8304 88.0435V81.5361H20.8476C15.7922 81.5361 11.5517 77.7603 11.0189 72.7846L9.3356 57.0658L2.27029 52.9422C0.104357 51.678 -0.639506 48.9298 0.597846 46.7633L8.83592 32.3389C9.09223 31.8901 9.24751 31.3494 9.28322 30.7683C9.95062 19.9092 14.4568 12.5522 19.9907 7.81779Z" fill="#BAFF00"/>
<path d="M65.0518 83.3231C65.0518 75.3457 65.8375 67.3779 67.6743 59.6158L67.6999 59.6204C67.7819 58.6145 68.6327 57.8235 69.6701 57.8235C70.7619 57.8235 71.6469 58.6995 71.6469 59.78C71.6469 59.9806 71.6164 60.1742 71.5598 60.3563C69.7771 67.8283 69.0054 75.5428 69.0054 83.3231V88.0435C69.0054 89.124 68.1203 90 67.0286 90C65.9368 90 65.0518 89.124 65.0518 88.0435V83.3231Z" fill="#BAFF00"/>
</svg>
